<svg width="46" height="39" viewBox="0 0 46 39" fill="none" xmlns="http://www.w3.org/2000/svg">
<path fill-rule="evenodd" clip-rule="evenodd" d="M0.93934 13.9393C1.52513 13.3536 2.47487 13.3536 3.06066 13.9393L23 33.8787L42.9393 13.9393C43.5251 13.3536 44.4749 13.3536 45.0607 13.9393C45.6464 14.5251 45.6464 15.4749 45.0607 16.0607L23 38.1213L0.93934 16.0607C0.353553 15.4749 0.353553 14.5251 0.93934 13.9393Z" fill="white"/>
<path fill-rule="evenodd" clip-rule="evenodd" d="M6.93934 0.93934C7.52513 0.353553 8.47487 0.353553 9.06066 0.93934L23 14.8787L36.9393 0.93934C37.5251 0.353553 38.4749 0.353553 39.0607 0.93934C39.6464 1.52513 39.6464 2.47487 39.0607 3.06066L23 19.1213L6.93934 3.06066C6.35355 2.47487 6.35355 1.52513 6.93934 0.93934Z" fill="white"/>
</svg>
