<svg width="18" height="15" viewBox="0 0 18 15" fill="none" xmlns="http://www.w3.org/2000/svg">
<path fill-rule="evenodd" clip-rule="evenodd" d="M0.292893 5.28124C0.683417 4.90625 1.31658 4.90625 1.70711 5.28124L9 12.2841L16.2929 5.28124C16.6834 4.90625 17.3166 4.90625 17.7071 5.28124C18.0976 5.65624 18.0976 6.26422 17.7071 6.63921L9 15L0.292893 6.63921C-0.0976311 6.26422 -0.0976311 5.65624 0.292893 5.28124Z" fill="#FFA901"/>
<path fill-rule="evenodd" clip-rule="evenodd" d="M1.33474 0.313284C1.78105 -0.104428 2.50467 -0.104428 2.95098 0.313284L9 5.97466L15.049 0.313284C15.4953 -0.104428 16.219 -0.104428 16.6653 0.313284C17.1116 0.730996 17.1116 1.40824 16.6653 1.82595L9 9L1.33474 1.82595C0.888422 1.40824 0.888422 0.730996 1.33474 0.313284Z" fill="#FFA901"/>
</svg>
