<svg width="229" height="277" viewBox="0 0 229 277" fill="none" xmlns="http://www.w3.org/2000/svg">
<g filter="url(#filter0_d)">
<path fill-rule="evenodd" clip-rule="evenodd" d="M30 10C24.4772 10 20 14.4772 20 20V215C20 220.523 24.4771 225 30 225H88C90.7614 225 92.9413 227.268 93.5612 229.959C95.8102 239.721 104.555 247 115 247C125.445 247 134.19 239.721 136.439 229.959C137.059 227.268 139.239 225 142 225H199C204.523 225 209 220.523 209 215V20C209 14.4772 204.523 10 199 10H30Z" fill="white"/>
</g>
<defs>
<filter id="filter0_d" x="0" y="0" width="229" height="277" filterUnits="userSpaceOnUse" color-interpolation-filters="sRGB">
<feFlood flood-opacity="0" result="BackgroundImageFix"/>
<feColorMatrix in="SourceAlpha" type="matrix" values="0 0 0 0 0 0 0 0 0 0 0 0 0 0 0 0 0 0 127 0"/>
<feOffset dy="10"/>
<feGaussianBlur stdDeviation="10"/>
<feColorMatrix type="matrix" values="0 0 0 0 0.113725 0 0 0 0 0.00392157 0 0 0 0 0.317647 0 0 0 0.1 0"/>
<feBlend mode="normal" in2="BackgroundImageFix" result="effect1_dropShadow"/>
<feBlend mode="normal" in="SourceGraphic" in2="effect1_dropShadow" result="shape"/>
</filter>
</defs>
</svg>
