<svg width="166" height="78" viewBox="0 0 166 78" fill="none" xmlns="http://www.w3.org/2000/svg">
<path d="M82.8614 29.7272C79.2464 35.2407 75.5832 42.428 73.6552 47.9416C72.5466 51.0922 73.0286 51.8798 73.7516 52.9628C74.3782 53.8982 75.2458 54.735 76.2098 55.2273C77.2702 55.7688 78.427 55.818 80.2586 55.4734C82.9578 54.9812 86.5729 53.2582 88.6937 50.8952C90.7663 48.5815 90.8145 45.6771 89.8023 44.151C89.1757 43.2157 88.4045 42.5265 87.4887 42.0834C91.0555 40.5081 93.6101 38.0467 95.0079 36.2253C96.6468 34.0593 97.5626 31.3025 96.695 28.0042C95.8273 24.6567 93.4655 23.8691 91.0073 24.0168C87.7779 24.2137 83.4398 26.6258 80.0658 26.9212C79.4874 26.9704 79.3428 27.2166 79.5838 27.7581C79.9212 28.5457 80.9334 29.6288 82.8614 29.7272ZM80.6442 40.7051C82.042 38.1944 83.4398 35.8807 84.4039 34.0593C85.6089 31.7948 85.9463 30.3179 85.8499 29.2349C89.1757 28.1519 93.9475 25.8874 94.9115 28.4473C96.1165 31.7948 90.1879 38.4406 80.6442 40.7051ZM84.3557 43.1664C88.7419 43.4126 88.7419 45.6278 86.9585 47.8923C84.8859 50.5014 80.7406 52.5198 77.6558 52.9136C76.1134 53.1105 75.5832 52.5198 76.1134 50.7968C76.8364 48.3354 78.0414 45.7263 79.3428 43.1664C80.0176 43.511 80.9816 43.6587 82.3312 43.511C83.006 43.4126 83.6808 43.3141 84.3557 43.1664Z" fill="white"/>
<path d="M97.4579 46.4647C100.832 49.2707 104.061 47.9908 106.423 45.0371C108.448 42.5265 108.833 39.5236 107.966 38.3421C107.194 37.2591 106.327 36.5207 105.122 35.7823C102.712 34.3546 97.7953 36.9145 94.6623 43.2649C91.5292 49.6153 93.65 55.7688 99.7715 55.6704C103.483 55.6211 107.194 53.3566 109.219 50.3537C110.086 49.0738 110.231 47.6954 110.038 47.3016C109.845 46.8585 109.46 46.8585 109.219 47.2524C107.146 50.5014 103.628 54.4397 99.6269 54.2427C97.0723 54.0951 95.9155 50.9937 97.4579 46.4647ZM97.8917 45.3817C97.9881 45.1356 98.1327 44.8402 98.2773 44.5448C100.543 39.8682 104.543 36.9145 105.556 37.7514C106.23 38.2929 105.17 40.8527 103.628 42.9203C102.23 44.791 100.253 46.9078 97.8917 45.3817Z" fill="white"/>
<path d="M121.766 29.038C117.283 35.9792 112.078 46.6616 110.969 50.6983C110.342 53.0613 110.921 54.5381 111.596 55.1781C111.933 55.5227 112.174 55.5227 112.367 55.0304C116.126 46.0217 120.224 39.1298 123.116 33.7639C124.417 31.3517 124.754 29.7272 124.706 28.5457C127.502 28.0535 130.538 27.5612 132.9 27.8073C133.527 27.8565 133.623 27.4627 133.479 27.0689C132.756 25.149 130.924 24.6075 128.9 24.5583C126.152 24.4598 118.151 26.2812 113.861 25.9367C113.379 25.8874 113.186 26.1336 113.331 26.5766C113.861 28.3981 115.934 29.4811 118.826 29.3826C119.693 29.3334 120.657 29.2349 121.766 29.038Z" fill="white"/>
<path d="M128.607 39.3267C129.812 36.2253 130.198 33.3701 128.703 33.4193C126.92 33.4685 122.727 39.2774 125.474 41.0989C123.691 43.708 120.461 48.3354 119.353 50.5014C118.051 53.012 118.051 55.2765 119.449 56.7534C119.883 57.1964 120.172 56.9503 120.268 56.5072C121.184 52.0275 125.811 45.0371 127.643 41.5912C129.089 41.5912 131.162 41.1481 133.282 39.7205C131.354 41.985 128.559 45.4802 127.498 48.7292C126.293 52.4213 127.691 55.6704 131.162 55.818C133.716 55.9165 136.512 53.8489 137.62 50.9937C138.151 49.6645 138.102 48.4831 137.861 47.9416C137.669 47.5477 137.379 47.597 137.187 47.9908C135.644 51.5352 133.331 54.5873 131.451 54.4889C130.053 54.4397 129.475 52.5198 130.246 49.9599C131.017 47.4001 133.379 44.2987 135.548 41.7881C136.946 40.1635 135.789 37.9975 134.873 36.9637C134.536 36.5699 134.15 36.6684 133.572 37.0622C131.788 38.3421 130.149 39.1298 128.607 39.3267Z" fill="white"/>
<path d="M147.746 32.2871C147.12 30.9579 145.722 30.3672 144.951 31.204C144.179 32.0409 143.938 33.5178 144.71 34.8469C145.433 36.1268 146.782 36.2745 147.409 35.5853C148.036 34.8961 148.373 33.567 147.746 32.2871ZM139.89 55.6211C142.589 55.6211 145.626 53.5536 147.072 50.5014C147.65 49.2707 147.795 48.2369 147.409 47.4493C147.216 47.0555 146.879 47.0062 146.638 47.4493C145.192 50.846 142.541 54.0951 140.372 54.1935C138.829 54.292 138.733 52.3721 139.89 49.5169C140.902 47.0555 142.926 43.708 143.938 41.5419C145.095 39.0805 144.71 36.9637 143.987 36.1761C143.601 35.733 143.264 35.8807 142.83 36.4714C141.046 39.0313 137.865 44.8402 136.66 48.4338C135.311 52.4705 136.226 55.6211 139.89 55.6211Z" fill="white"/>
<path d="M155.864 54.6858C157.695 53.5536 159.479 51.1906 160.925 47.9416C162.708 43.9049 163.768 39.5236 161.455 37.013C159.382 34.7977 156.538 36.1761 154.418 38.0467C154.466 37.2099 154.369 36.4714 154.128 35.8315C153.887 35.2407 153.454 35.1423 152.972 35.7823C149.935 39.9174 141.837 55.5227 140.391 60.2978C139.475 63.3007 139.716 64.6791 140.439 65.7129C140.729 66.1559 141.066 66.0575 141.259 65.6144C143.572 60.1501 146.031 55.1289 148.296 50.8952C148.441 52.1259 148.923 53.2582 149.935 54.1935C151.622 55.7688 153.646 56.2119 156.731 56.015C160.202 55.7688 163.479 54.1443 165.311 50.7476C166.13 49.2215 166.034 47.9416 165.937 47.4985C165.841 47.0062 165.311 46.8093 165.022 47.4985C163.479 50.846 160.587 54.3904 155.864 54.6858ZM150.995 45.9724C151.574 44.9387 152.104 44.0526 152.634 43.1664C154.9 39.3759 157.888 36.9145 159.045 37.5052C160.25 38.096 159.72 42.1819 157.84 46.1201C155.574 50.846 152.441 54.4397 150.899 53.1597C149.549 52.0275 149.79 49.0738 150.995 45.9724Z" fill="white"/>
<path d="M27.7143 0C12.411 0 0 12.4025 0 27.6955C0 42.9885 21.7823 77.6105 27.7143 77.6C33.457 77.5895 55.4286 42.9885 55.4286 27.6955C55.4181 12.4025 43.0176 0 27.7143 0Z" fill="white"/>
<path d="M27.715 1.36035C13.0516 1.36035 1.15967 13.2523 1.15967 27.9157C1.15967 42.5791 22.031 75.7757 27.715 75.7657C33.2175 75.7556 54.2703 42.5791 54.2703 27.9157C54.2602 13.2523 42.3784 1.36035 27.715 1.36035Z" fill="#200F32"/>
<path d="M48.3896 26.6856C48.3896 38.0229 34.7803 58.068 27.7138 58.068C21.1118 58.068 7.03809 38.0229 7.03809 26.6856C7.03809 15.3482 16.2888 6.15869 27.7138 6.15869C39.1388 6.15869 48.3896 15.3482 48.3896 26.6856Z" fill="white"/>
<path fill-rule="evenodd" clip-rule="evenodd" d="M13.0342 41.3945C13.7585 42.1247 14.9547 42.0545 15.6191 41.2694C15.871 40.9872 16.1129 40.6949 16.3547 40.4027C16.6974 40.0096 17.1207 39.8081 17.5439 39.7778H17.5742H17.6044C18.0378 39.798 18.461 40.0096 18.7936 40.4027C18.8641 40.4883 18.9372 40.5739 19.0102 40.6596C19.0833 40.7453 19.1564 40.8309 19.227 40.9166C19.4587 41.1887 19.7308 41.4407 20.0231 41.6523C20.92 42.2973 21.8271 41.7531 22.462 41.0476C23.6079 39.7803 24.731 38.4843 25.8527 37.1899C26.2206 36.7654 26.5884 36.3411 26.9567 35.918C27.0553 35.8063 27.1837 35.6586 27.3341 35.4856C28.3369 34.3319 30.3179 32.0529 30.9577 31.8163C31.7639 31.524 32.6104 31.8465 33.1849 32.4411C33.909 33.192 37.6753 37.4981 40.424 40.6408C41.1139 41.4295 42.3246 41.5008 43.0289 40.7248C46.3599 37.0544 48.3896 32.1814 48.3896 26.8344C48.3896 15.4155 39.1327 6.15869 27.7138 6.15869C16.2949 6.15869 7.03809 15.4155 7.03809 26.8344C7.03809 32.5135 9.3277 37.6577 13.0342 41.3945Z" fill="url(#paint0_linear)"/>
<path d="M27.7135 58.508C34.8025 57.6282 48.3892 40.4717 50.7918 18.5333C50.7716 17.0821 50.6709 15.651 50.4492 14.2603C52.8376 18.2511 54.2183 22.9172 54.2183 27.9058C54.2183 42.5691 33.3469 75.7658 27.663 75.7557C22.9364 75.7456 6.7412 51.2664 2.2666 35.0712C8.77694 49.9361 19.5604 58.9413 27.7135 58.508Z" fill="url(#paint1_linear)"/>
<path d="M27.715 58.0681C20.2367 57.6282 4.83983 35.1928 4.58616 18.5333C4.62647 17.0821 4.7071 15.651 4.92881 14.2603C2.54034 18.2612 1.15967 22.9273 1.15967 27.9158C1.15967 42.5792 22.031 75.7759 27.715 75.7658C31.1516 75.7557 40.655 62.8056 47.3065 49.5128C49.7957 44.5243 40.8896 58.8431 27.715 58.0681Z" fill="url(#paint2_linear)"/>
<defs>
<linearGradient id="paint0_linear" x1="6.44573" y1="27.1513" x2="48.9969" y2="27.1513" gradientUnits="userSpaceOnUse">
<stop stop-color="#FDC635"/>
<stop offset="1" stop-color="#FFA901"/>
</linearGradient>
<linearGradient id="paint1_linear" x1="47.2935" y1="-14.0085" x2="29.4757" y2="30.9845" gradientUnits="userSpaceOnUse">
<stop stop-color="#3A1B5A"/>
<stop offset="0.3726" stop-color="#200F32"/>
</linearGradient>
<linearGradient id="paint2_linear" x1="29.9577" y1="53.1886" x2="-7.85696" y2="-1.80281" gradientUnits="userSpaceOnUse">
<stop stop-color="#3A1B5A"/>
<stop offset="0.6775" stop-color="#200F32"/>
</linearGradient>
</defs>
</svg>
