<svg width="169" height="77" viewBox="0 0 169 77" fill="none" xmlns="http://www.w3.org/2000/svg">
<path d="M85.8614 29.7272C82.2464 35.2407 78.5832 42.428 76.6552 47.9416C75.5466 51.0922 76.0286 51.8798 76.7516 52.9628C77.3782 53.8982 78.2458 54.735 79.2098 55.2273C80.2702 55.7688 81.427 55.818 83.2586 55.4734C85.9578 54.9812 89.5729 53.2582 91.6937 50.8952C93.7663 48.5815 93.8145 45.6771 92.8023 44.151C92.1757 43.2157 91.4045 42.5265 90.4887 42.0834C94.0555 40.5081 96.6101 38.0467 98.0079 36.2253C99.6468 34.0593 100.563 31.3025 99.695 28.0042C98.8273 24.6567 96.4655 23.8691 94.0073 24.0168C90.7779 24.2137 86.4398 26.6258 83.0658 26.9212C82.4874 26.9704 82.3428 27.2166 82.5838 27.7581C82.9212 28.5457 83.9334 29.6288 85.8614 29.7272ZM83.6442 40.7051C85.042 38.1944 86.4398 35.8807 87.4039 34.0593C88.6089 31.7948 88.9463 30.3179 88.8499 29.2349C92.1757 28.1519 96.9475 25.8874 97.9115 28.4473C99.1165 31.7948 93.1879 38.4406 83.6442 40.7051ZM87.3557 43.1664C91.7419 43.4126 91.7419 45.6278 89.9585 47.8923C87.8859 50.5014 83.7406 52.5198 80.6558 52.9136C79.1134 53.1105 78.5832 52.5198 79.1134 50.7968C79.8364 48.3354 81.0414 45.7263 82.3428 43.1664C83.0176 43.511 83.9816 43.6587 85.3312 43.511C86.006 43.4126 86.6808 43.3141 87.3557 43.1664Z" fill="white"/>
<path d="M100.458 46.4647C103.832 49.2707 107.061 47.9908 109.423 45.0371C111.448 42.5265 111.833 39.5236 110.966 38.3421C110.194 37.2591 109.327 36.5207 108.122 35.7823C105.712 34.3546 100.795 36.9145 97.6623 43.2649C94.5292 49.6153 96.65 55.7688 102.771 55.6704C106.483 55.6211 110.194 53.3566 112.219 50.3537C113.086 49.0738 113.231 47.6954 113.038 47.3016C112.845 46.8585 112.46 46.8585 112.219 47.2524C110.146 50.5014 106.628 54.4397 102.627 54.2427C100.072 54.0951 98.9155 50.9937 100.458 46.4647ZM100.892 45.3817C100.988 45.1356 101.133 44.8402 101.277 44.5448C103.543 39.8682 107.543 36.9145 108.556 37.7514C109.23 38.2929 108.17 40.8527 106.628 42.9203C105.23 44.791 103.253 46.9078 100.892 45.3817Z" fill="white"/>
<path d="M124.766 29.038C120.283 35.9792 115.078 46.6616 113.969 50.6983C113.342 53.0613 113.921 54.5381 114.596 55.1781C114.933 55.5227 115.174 55.5227 115.367 55.0304C119.126 46.0217 123.224 39.1298 126.116 33.7639C127.417 31.3517 127.754 29.7272 127.706 28.5457C130.502 28.0535 133.538 27.5612 135.9 27.8073C136.527 27.8565 136.623 27.4627 136.479 27.0689C135.756 25.149 133.924 24.6075 131.9 24.5583C129.152 24.4598 121.151 26.2812 116.861 25.9367C116.379 25.8874 116.186 26.1336 116.331 26.5766C116.861 28.3981 118.934 29.4811 121.826 29.3826C122.693 29.3334 123.657 29.2349 124.766 29.038Z" fill="white"/>
<path d="M131.607 39.3267C132.812 36.2253 133.198 33.3701 131.703 33.4193C129.92 33.4685 125.727 39.2774 128.474 41.0989C126.691 43.708 123.461 48.3354 122.353 50.5014C121.051 53.012 121.051 55.2765 122.449 56.7534C122.883 57.1964 123.172 56.9503 123.268 56.5072C124.184 52.0275 128.811 45.0371 130.643 41.5912C132.089 41.5912 134.162 41.1481 136.282 39.7205C134.354 41.985 131.559 45.4802 130.498 48.7292C129.293 52.4213 130.691 55.6704 134.162 55.818C136.716 55.9165 139.512 53.8489 140.62 50.9937C141.151 49.6645 141.102 48.4831 140.861 47.9416C140.669 47.5477 140.379 47.597 140.187 47.9908C138.644 51.5352 136.331 54.5873 134.451 54.4889C133.053 54.4397 132.475 52.5198 133.246 49.9599C134.017 47.4001 136.379 44.2987 138.548 41.7881C139.946 40.1635 138.789 37.9975 137.873 36.9637C137.536 36.5699 137.15 36.6684 136.572 37.0622C134.788 38.3421 133.149 39.1298 131.607 39.3267Z" fill="white"/>
<path d="M150.746 32.2871C150.12 30.9579 148.722 30.3672 147.951 31.204C147.179 32.0409 146.938 33.5178 147.71 34.8469C148.433 36.1268 149.782 36.2745 150.409 35.5853C151.036 34.8961 151.373 33.567 150.746 32.2871ZM142.89 55.6211C145.589 55.6211 148.626 53.5536 150.072 50.5014C150.65 49.2707 150.795 48.2369 150.409 47.4493C150.216 47.0555 149.879 47.0062 149.638 47.4493C148.192 50.846 145.541 54.0951 143.372 54.1935C141.829 54.292 141.733 52.3721 142.89 49.5169C143.902 47.0555 145.926 43.708 146.938 41.5419C148.095 39.0805 147.71 36.9637 146.987 36.1761C146.601 35.733 146.264 35.8807 145.83 36.4714C144.046 39.0313 140.865 44.8402 139.66 48.4338C138.311 52.4705 139.226 55.6211 142.89 55.6211Z" fill="white"/>
<path d="M158.864 54.6858C160.695 53.5536 162.479 51.1906 163.925 47.9416C165.708 43.9049 166.768 39.5236 164.455 37.013C162.382 34.7977 159.538 36.1761 157.418 38.0467C157.466 37.2099 157.369 36.4714 157.128 35.8315C156.887 35.2407 156.454 35.1423 155.972 35.7823C152.935 39.9174 144.837 55.5227 143.391 60.2978C142.475 63.3007 142.716 64.6791 143.439 65.7129C143.729 66.1559 144.066 66.0575 144.259 65.6144C146.572 60.1501 149.031 55.1289 151.296 50.8952C151.441 52.1259 151.923 53.2582 152.935 54.1935C154.622 55.7688 156.646 56.2119 159.731 56.015C163.202 55.7688 166.479 54.1443 168.311 50.7476C169.13 49.2215 169.034 47.9416 168.937 47.4985C168.841 47.0062 168.311 46.8093 168.022 47.4985C166.479 50.846 163.587 54.3904 158.864 54.6858ZM153.995 45.9724C154.574 44.9387 155.104 44.0526 155.634 43.1664C157.9 39.3759 160.888 36.9145 162.045 37.5052C163.25 38.096 162.72 42.1819 160.84 46.1201C158.574 50.846 155.441 54.4397 153.899 53.1597C152.549 52.0275 152.79 49.0738 153.995 45.9724Z" fill="white"/>
<path d="M61 30.2103C61 46.8804 30.5 77 30.5 77C30.5 77 0 46.8804 0 30.2103C0 13.5402 13.67 0 30.5 0C47.33 0 61 13.5175 61 30.2103Z" fill="white"/>
<path d="M30.4884 10C20.2687 10 12 18.0479 12 28C12 35.4358 16.6686 41.8514 23.2881 44.5718V39.0856L27.9567 43.3476L25.9824 45.4559C27.4457 45.8186 28.9554 46 30.5116 46C34.1582 46 37.5725 44.9572 40.4294 43.1889V29.3149L47.5367 35.8212C48.6051 33.5542 49 30.6524 49 28C48.9768 18.0479 40.7081 10 30.4884 10Z" fill="url(#paint0_linear)"/>
<path d="M23.1466 39.6247C23.1466 39.6247 23.1466 43.4613 23.1466 44.9421C28.7876 39.9164 34.6393 34.7112 40.4207 29.5734C40.4207 29.6631 40.4207 30.0221 40.4207 30.3586C40.4207 40.41 40.3973 61.6794 40.3973 61.6794C40.3973 61.6794 34.0775 68.3878 31.2687 71.3942C31.0815 71.5961 30.8708 71.7532 30.5899 72C30.3793 71.8429 30.1452 71.7083 29.958 71.5064C23.0998 64.6185 16.663 57.4165 11.2092 49.4517C8.16638 45.0543 5.45121 40.4773 3.85956 35.3619C2.33812 30.4484 2.9467 25.647 4.81923 20.9803C10.2496 7.45139 25.7682 0.698123 40.0228 5.58919C50.5792 9.24627 58.0928 19.4323 57.9991 30.1343C57.9523 34.3971 56.2905 38.2113 54.3009 42.0927C53.9498 41.801 53.6923 41.5991 53.4582 41.3747C51.6793 39.7145 47.3725 35.7433 47.3725 35.7433C47.3725 35.7433 47.6768 35.1151 47.7938 34.7561C50.3218 27.8009 49.0812 21.5412 43.8381 16.1341C40.725 12.9258 36.7693 11.1982 32.1816 10.7944C27.2662 10.3681 22.8658 11.6694 18.9803 14.4739C10.7177 20.4867 9.52396 32.4452 16.4289 39.9837C18.1142 41.7786 19.3548 42.519 19.3548 42.519C19.3548 42.519 21.4145 40.7914 22.1402 40.1408C22.3742 39.9164 23.1934 39.176 23.1934 39.176L23.1466 39.6247Z" fill="#200F32"/>
<defs>
<linearGradient id="paint0_linear" x1="46.4712" y1="10" x2="9.7753" y2="15.4155" gradientUnits="userSpaceOnUse">
<stop stop-color="#FDC635"/>
<stop offset="1" stop-color="#FFA901"/>
</linearGradient>
</defs>
</svg>
