<svg width="233" height="51" viewBox="0 0 233 51" fill="none" xmlns="http://www.w3.org/2000/svg">
<path d="M0 28.085C0 16.9183 6.56309 7.37917 17.7248 7.04911C19.3498 7.00106 21.1056 6.98626 23 7.01368C23.4523 7.02022 23.8967 7.02849 24.3334 7.03838C37.7445 7.3421 46 18.5541 46 31.9687C46 41.7907 40.7564 49.7658 30.9366 49.9751C28.6413 50.024 26.011 50.0039 23 49.888C21.6283 49.8351 20.3357 49.7773 19.1177 49.7155C7.31937 49.1167 0 39.8985 0 28.085Z" fill="white"/>
<path d="M90.9829 7.99425C97.0886 3.76048 104.793 3.73234 109.205 9.71024C109.848 10.5805 110.521 11.535 111.225 12.5812C111.392 12.831 111.556 13.0771 111.717 13.3196C116.635 20.7677 113.635 29.5326 106.3 34.6187C100.929 38.3427 94.5807 38.4993 90.7432 33.2093C89.8462 31.9729 88.8599 30.5271 87.7817 28.8367C87.2905 28.0667 86.832 27.338 86.404 26.6486C82.2582 19.9704 84.5234 12.4733 90.9829 7.99425Z" fill="white"/>
<path d="M162.842 28.2315C166.837 25.4609 171.879 25.4425 174.766 29.3545C175.187 29.924 175.628 30.5486 176.088 31.2333C176.198 31.3967 176.305 31.5578 176.41 31.7165C179.629 36.5906 177.665 42.3265 172.865 45.6549C169.351 48.0919 165.196 48.1944 162.685 44.7326C162.098 43.9234 161.452 42.9773 160.747 41.8711C160.425 41.3672 160.125 40.8903 159.845 40.4392C157.132 36.0689 158.614 31.1627 162.842 28.2315Z" fill="white"/>
<path d="M220.189 19.4619C222.833 17.6285 226.169 17.6163 228.08 20.205C228.358 20.5818 228.65 20.9952 228.955 21.4482C229.027 21.5564 229.098 21.663 229.168 21.768C231.298 24.9934 229.998 28.789 226.822 30.9915C224.496 32.6042 221.747 32.672 220.085 30.3812C219.697 29.8457 219.27 29.2196 218.803 28.4876C218.59 28.1542 218.392 27.8386 218.206 27.5401C216.411 24.6481 217.392 21.4015 220.189 19.4619Z" fill="white"/>
</svg>
