<svg width="155" height="470" viewBox="0 0 155 470" fill="none" xmlns="http://www.w3.org/2000/svg">
<mask id="mask0" mask-type="alpha" maskUnits="userSpaceOnUse" x="0" y="0" width="155" height="470">
<rect width="155" height="470" fill="url(#paint0_linear)"/>
</mask>
<g mask="url(#mask0)">
<path d="M173.447 68.3265C172.581 69.8344 167.818 70.4362 166.375 69.5308C165.653 69.0781 165.509 68.4748 165.364 67.8715C163.632 65.7595 162.045 64.2509 159.735 62.2896C159.014 61.8369 157.859 62.1381 157.282 62.2887C154.539 63.6452 154.539 63.6452 152.807 61.5332C151.941 60.4772 151.075 59.4213 149.632 58.516C148.91 58.0633 147.611 57.7613 146.457 58.0625C144.292 59.2684 142.848 58.363 141.982 57.307C141.116 56.251 139.673 55.3456 138.807 54.2896C138.085 53.837 136.642 52.9316 135.487 53.2329C134.188 52.9308 133.034 53.2321 132.023 51.5728C131.302 51.1202 130.58 50.6674 129.858 50.2148C127.693 48.8567 124.951 47.6493 122.642 45.688C120.332 43.7267 118.167 42.3687 115.858 40.4073C115.136 39.9547 114.559 40.1053 113.981 40.2559C114.126 40.8592 113.693 41.6132 113.837 42.2165C114.992 44.4791 116.002 46.1383 117.157 48.4009C119.322 52.3228 121.631 56.8481 123.797 60.77C125.817 64.0886 127.405 68.1611 129.426 71.4797C130.292 72.5357 129.859 73.2896 129.57 74.6469C129.137 75.4008 128.848 76.7581 129.57 77.2107C130.725 79.4734 132.457 81.5854 134.189 83.6974C135.199 85.3567 135.488 86.5633 134.044 88.2218C133.611 88.9758 133.179 89.7296 133.467 90.9363C134.189 93.9528 135.921 96.0648 138.23 98.0261C140.54 99.9875 140.395 101.948 137.653 103.305C135.488 104.51 135.199 105.868 136.931 107.98C139.241 109.941 141.406 111.299 143.715 113.26C145.88 114.618 145.592 115.976 143.571 117.785C142.561 118.689 142.128 119.443 142.561 121.253C142.705 121.857 143.571 122.912 144.293 123.365C146.458 124.723 148.767 126.685 150.932 128.043C153.241 130.004 153.674 131.814 150.932 133.17C148.911 134.979 148.912 134.979 150.644 137.091C153.097 139.656 156.417 140.713 159.881 142.373C162.046 143.731 162.335 144.938 160.891 146.596C159.015 149.009 158.582 149.762 160.891 151.724C161.613 152.177 162.335 152.629 163.201 153.685C165.51 155.646 168.252 156.854 171.572 157.911C172.149 157.76 173.16 159.419 173.16 159.419C172.727 160.173 172.294 160.927 171.139 161.228C170.562 161.379 169.263 161.077 168.685 161.228C167.964 160.775 167.242 160.322 166.088 160.624C164.067 159.869 162.912 160.17 162.191 162.281C161.469 164.393 160.314 164.694 158.149 163.336C156.706 162.43 155.84 161.374 154.396 160.469C152.953 159.564 151.799 159.865 150.355 161.524C147.902 164.087 147.902 164.087 145.015 162.276C142.273 161.069 140.396 160.917 138.52 163.33C137.077 164.988 136.499 165.139 134.479 164.384C131.736 163.177 128.85 163.93 126.974 166.342C126.108 167.85 124.809 167.548 123.51 167.246C120.19 166.189 117.303 166.942 114.272 169.656C112.685 170.711 111.674 171.616 109.798 171.465C106.045 171.162 101.86 171.613 98.1072 173.874C97.5298 174.025 96.3752 174.326 95.7979 174.476C91.6123 174.928 86.8492 175.529 82.6636 175.98C81.509 176.282 80.9316 176.432 79.777 176.734C78.6223 177.035 78.3336 178.392 79.6326 178.694C80.3543 179.147 80.3544 179.147 80.9317 178.996C88.004 180.356 94.2103 183.223 100.561 186.694C101.283 187.147 101.427 187.75 102.149 188.203C103.015 189.259 104.458 190.164 105.901 191.069C107.345 191.975 109.943 192.579 110.953 194.238C112.829 196.953 115.716 198.764 119.036 199.821C119.757 200.274 120.479 200.726 120.623 201.33C121.49 204.949 124.232 206.157 127.552 207.214C128.273 207.666 129.572 207.968 129.716 208.572C131.16 212.041 134.48 213.098 137.51 212.948C139.387 213.099 140.108 213.552 140.541 215.362C140.974 217.172 141.841 218.228 143.14 218.53C144.439 218.832 146.315 218.983 148.191 219.135C149.49 219.437 150.645 219.135 151.078 220.945C151.511 222.755 152.954 223.661 154.831 223.812C156.707 223.963 157.862 223.662 159.738 223.814C160.315 223.663 161.614 223.965 162.336 224.418C164.79 226.982 167.82 226.832 170.418 227.437C171.14 227.889 173.161 228.644 172.728 229.398C172.439 230.755 173.594 233.018 170.852 234.374C168.542 234.977 167.676 236.485 167.676 239.048C168.109 240.858 167.099 241.763 165.367 242.215C163.635 242.667 162.192 244.325 161.47 246.437C160.316 249.302 159.883 250.056 156.707 249.602C154.109 248.998 151.367 247.791 148.625 246.583C147.903 246.131 146.748 246.432 146.748 246.432C146.171 246.582 146.46 247.789 146.604 248.392C147.903 251.258 148.48 253.672 150.357 256.387C151.367 258.046 152.522 260.309 152.378 262.269C152.233 264.23 153.676 265.135 155.12 266.041C157.285 267.399 159.739 269.963 160.893 272.226C161.326 274.036 161.326 276.6 161.904 279.013C161.904 279.013 161.904 279.013 162.048 279.616C161.904 281.577 162.77 282.633 164.213 283.538C164.935 283.991 165.801 285.047 165.945 285.65C166.234 286.857 167.1 287.913 167.966 288.969C168.832 290.025 169.121 291.231 169.987 292.287C170.275 293.494 169.698 293.644 168.543 293.946C167.244 293.644 165.368 293.492 164.069 293.19C162.77 292.888 160.749 292.133 159.739 293.038C157.574 294.244 155.698 294.093 153.821 293.941C151.945 293.79 150.213 294.242 148.914 293.94C145.883 294.089 142.708 293.636 140.831 290.921C139.965 289.865 139.965 289.865 138.955 290.769C138.378 290.92 137.8 291.071 137.223 291.221C136.646 291.372 135.347 291.07 135.491 291.673C135.058 292.427 135.202 293.03 135.347 293.634C135.636 294.84 136.502 295.896 137.512 297.556C136.213 297.254 134.914 296.951 133.615 296.649C130.584 296.799 128.996 297.854 129.141 301.022C128.419 300.569 127.842 300.72 127.12 300.267C123.945 299.814 120.048 298.907 117.017 299.057C112.687 298.905 112.254 299.659 110.811 303.881C110.233 304.032 109.511 303.579 108.934 303.73C104.893 302.221 100.707 302.672 96.6658 303.726C93.2019 304.63 92.1916 305.535 92.4804 309.305C92.4804 309.305 92.4803 309.305 91.903 309.456C86.707 308.247 82.0884 309.453 76.7481 310.205C75.0161 310.657 73.2842 311.109 73.2843 313.673C73.2843 313.673 72.2739 314.577 71.6966 314.728C69.9646 315.18 68.0883 315.028 66.3563 315.48C63.4697 316.233 60.0057 317.137 57.119 317.89C49.4694 319.245 42.5416 321.053 34.892 322.408C34.3147 322.558 33.8817 323.312 32.8714 324.217C33.5931 324.67 33.7373 325.273 34.459 325.726C37.057 326.33 39.6551 326.934 42.686 326.784C47.7377 327.389 52.645 327.39 57.6966 327.995C63.3256 328.449 69.099 329.507 74.8723 330.565C74.1506 332.676 76.0269 332.827 77.9033 332.979C81.6559 333.281 85.5527 334.187 88.5837 334.038C88.8724 335.244 89.1611 336.451 89.5941 338.261L89.1613 339.015C88.2953 340.523 86.4189 340.371 84.6869 340.823C82.8106 340.672 81.0786 341.124 79.7797 343.385C78.9137 344.893 77.759 345.195 76.6044 345.496C73.5734 345.646 71.2641 346.248 68.5218 347.605C66.9342 348.66 65.2023 349.112 64.0477 349.413C61.7383 350.016 58.8516 350.769 56.5423 351.371C54.8103 351.823 55.0991 353.03 55.8208 353.482C55.9651 354.086 56.5423 353.935 57.1197 353.785C62.46 355.596 67.2231 357.558 72.4191 358.766C73.1407 359.219 74.4397 359.521 75.1613 359.974C78.914 362.84 82.9553 364.35 87.7183 363.748C88.2956 363.597 89.5946 363.9 90.4606 364.956C92.4813 368.274 96.2341 368.577 99.265 368.427C102.873 368.127 104.75 368.278 108.214 369.938C110.956 371.145 113.843 370.392 116.007 369.186C117.739 368.734 119.039 369.037 120.482 369.942C122.07 371.451 123.368 371.753 125.1 371.301C126.832 370.849 128.565 370.397 130.297 369.945C130.874 369.794 132.173 370.096 132.75 369.946L132.894 370.549C128.853 371.603 125.389 372.507 121.204 372.959C118.173 373.108 115.286 373.861 113.265 375.671C111.822 377.329 110.09 377.781 107.636 377.78C104.028 378.081 100.564 378.985 97.5332 381.698C96.5229 382.603 95.3683 382.904 93.6363 383.356C90.7497 384.109 87.863 384.862 85.1207 386.219C82.8114 386.821 82.2341 389.536 84.3991 390.894C85.1207 391.347 85.2651 391.95 85.9868 392.402C85.4095 392.553 84.8321 392.704 84.8321 392.704C81.9454 393.457 79.0588 394.21 76.4609 396.17C73.2856 398.28 73.1413 400.241 75.595 402.806C76.461 403.862 76.6053 404.465 74.8733 404.917C73.1413 405.369 71.4094 405.821 70.3991 406.725C65.9248 408.533 65.7805 410.494 68.3785 413.662C69.2446 414.718 69.5333 415.925 67.8014 416.376C64.3374 417.28 61.162 419.391 58.7084 421.954C57.2651 423.612 56.8322 424.366 57.8426 426.026C57.9869 426.629 58.2756 427.836 57.6983 427.986C54.09 430.851 51.7806 434.017 49.0384 437.937C46.7291 441.104 44.4198 444.27 41.9662 446.833C40.09 449.246 38.791 451.508 37.492 453.769C36.6261 455.277 37.2035 457.691 38.5025 457.993C40.3788 458.144 42.2552 458.295 43.6985 456.637C46.8738 454.526 50.049 452.416 53.3686 450.909C57.2656 449.251 61.3069 448.197 64.1935 444.88C64.1935 444.88 65.4924 445.182 66.0697 445.031C66.7914 445.484 68.0905 445.786 68.8122 446.238C73.5751 445.637 77.4719 443.979 80.3585 440.662C80.7915 439.908 81.369 439.757 82.3793 438.853C82.0906 440.21 82.2349 440.813 82.3793 441.417C82.668 442.623 81.9463 444.734 82.5236 444.584C83.8226 444.886 85.699 445.037 86.8537 444.736C89.596 443.38 92.3382 442.023 94.0702 439.007C94.5032 438.253 95.0804 438.103 95.5134 437.349C95.6578 437.952 95.8021 438.555 96.0908 439.762C96.2351 440.365 96.2351 440.365 95.8021 441.119C95.8021 443.683 96.5239 444.136 98.9776 444.137C100.132 443.835 101.287 443.534 102.009 443.987C102.297 445.193 101.864 445.947 102.586 446.4C103.741 448.663 103.019 450.774 100.998 452.583C98.9778 454.392 98.8335 456.353 99.2665 458.163C99.4108 458.766 99.5551 459.369 99.1221 460.123C98.5449 462.838 97.3902 465.703 96.2355 468.568C147.617 439.778 198.422 411.139 249.804 382.35" fill="#200F32"/>
</g>
<defs>
<linearGradient id="paint0_linear" x1="77.5" y1="469.984" x2="77.5" y2="0" gradientUnits="userSpaceOnUse">
<stop stop-color="white"/>
<stop offset="1" stop-color="#A2A9D0"/>
</linearGradient>
</defs>
</svg>
