<svg width="231" height="88" viewBox="0 0 231 88" fill="none" xmlns="http://www.w3.org/2000/svg">
<path d="M0 43.9553C0 22.354 15.1549 4.37813 36.7087 2.9466C54.7768 1.74658 80.4061 0.797236 115.5 1.00009C148.284 1.18959 172.808 2.09731 190.624 3.15162C214.13 4.54257 231 24.0432 231 47.5896C231 68.2393 217.526 84.8031 196.909 85.9669C179.42 86.9542 153.497 87.5846 115.5 87.0001C80.16 86.4564 55.2646 85.65 37.8851 84.8427C15.8149 83.8175 0 66.0493 0 43.9553Z" fill="white"/>
<path d="M25.225 44.4C25.225 42.9067 25.4933 41.425 26.03 39.955C26.5667 38.4617 27.3483 37.1317 28.375 35.965C29.425 34.775 30.6967 33.8183 32.19 33.095C33.6833 32.3717 35.375 32.01 37.265 32.01C39.5283 32.01 41.465 32.5117 43.075 33.515C44.685 34.5183 45.8983 35.825 46.715 37.435L43.635 39.5C43.285 38.7533 42.865 38.1233 42.375 37.61C41.885 37.0967 41.3483 36.6883 40.765 36.385C40.1817 36.0817 39.575 35.8717 38.945 35.755C38.315 35.615 37.7083 35.545 37.125 35.545C35.8183 35.545 34.675 35.8133 33.695 36.35C32.715 36.8633 31.8867 37.5517 31.21 38.415C30.5567 39.2783 30.055 40.2467 29.705 41.32C29.3783 42.3933 29.215 43.4667 29.215 44.54C29.215 45.7533 29.4133 46.9083 29.81 48.005C30.2067 49.1017 30.755 50.07 31.455 50.91C32.1783 51.75 33.03 52.4267 34.01 52.94C34.99 53.43 36.0633 53.675 37.23 53.675C37.8367 53.675 38.455 53.605 39.085 53.465C39.7383 53.3017 40.3567 53.0567 40.94 52.73C41.5467 52.38 42.095 51.9483 42.585 51.435C43.0983 50.9217 43.5183 50.3033 43.845 49.58L47.1 51.435C46.7033 52.3683 46.1433 53.1967 45.42 53.92C44.6967 54.62 43.88 55.215 42.97 55.705C42.06 56.195 41.0917 56.5683 40.065 56.825C39.0617 57.0817 38.07 57.21 37.09 57.21C35.34 57.21 33.7417 56.8367 32.295 56.09C30.8483 55.3433 29.6 54.375 28.55 53.185C27.5 51.9717 26.6833 50.6067 26.1 49.09C25.5167 47.55 25.225 45.9867 25.225 44.4ZM58.4608 57.35C57.0141 57.35 55.7074 57.0933 54.5408 56.58C53.3974 56.0667 52.4174 55.3783 51.6008 54.515C50.7841 53.6517 50.1541 52.6483 49.7108 51.505C49.2674 50.3383 49.0458 49.125 49.0458 47.865C49.0458 46.605 49.2674 45.4033 49.7108 44.26C50.1541 43.0933 50.7841 42.0783 51.6008 41.215C52.4408 40.3517 53.4324 39.6633 54.5758 39.15C55.7424 38.6367 57.0374 38.38 58.4608 38.38C59.8841 38.38 61.1674 38.6367 62.3108 39.15C63.4774 39.6633 64.4691 40.3517 65.2858 41.215C66.1258 42.0783 66.7674 43.0933 67.2108 44.26C67.6541 45.4033 67.8758 46.605 67.8758 47.865C67.8758 49.125 67.6541 50.3383 67.2108 51.505C66.7674 52.6483 66.1258 53.6517 65.2858 54.515C64.4691 55.3783 63.4774 56.0667 62.3108 56.58C61.1674 57.0933 59.8841 57.35 58.4608 57.35ZM53.0008 47.9C53.0008 48.7867 53.1408 49.6033 53.4208 50.35C53.7008 51.0967 54.0858 51.75 54.5758 52.31C55.0658 52.8467 55.6374 53.2783 56.2908 53.605C56.9674 53.9083 57.6908 54.06 58.4608 54.06C59.2308 54.06 59.9424 53.9083 60.5958 53.605C61.2724 53.2783 61.8558 52.835 62.3458 52.275C62.8358 51.715 63.2208 51.0617 63.5008 50.315C63.7808 49.5683 63.9208 48.7517 63.9208 47.865C63.9208 47.0017 63.7808 46.1967 63.5008 45.45C63.2208 44.68 62.8358 44.015 62.3458 43.455C61.8558 42.895 61.2724 42.4633 60.5958 42.16C59.9424 41.8333 59.2308 41.67 58.4608 41.67C57.7141 41.67 57.0024 41.8333 56.3258 42.16C55.6724 42.4867 55.1008 42.93 54.6108 43.49C54.1208 44.05 53.7241 44.715 53.4208 45.485C53.1408 46.2317 53.0008 47.0367 53.0008 47.9ZM87.7055 57H83.8555V46.745C83.8555 45.0183 83.5755 43.77 83.0155 43C82.4788 42.2067 81.6738 41.81 80.6005 41.81C80.0405 41.81 79.4805 41.915 78.9205 42.125C78.3605 42.335 77.8355 42.6383 77.3455 43.035C76.8555 43.4083 76.4121 43.8633 76.0155 44.4C75.6421 44.9133 75.3505 45.485 75.1405 46.115V57H71.2905V38.695H74.7905V42.37C75.4905 41.1333 76.5055 40.165 77.8355 39.465C79.1655 38.7417 80.6355 38.38 82.2455 38.38C83.3421 38.38 84.2405 38.5783 84.9405 38.975C85.6405 39.3717 86.1888 39.92 86.5855 40.62C87.0055 41.2967 87.2971 42.09 87.4605 43C87.6238 43.8867 87.7055 44.8317 87.7055 45.835V57ZM102.188 56.055C101.698 56.2883 101.022 56.5567 100.158 56.86C99.295 57.14 98.3734 57.28 97.3934 57.28C96.7867 57.28 96.215 57.1983 95.6784 57.035C95.1417 56.8717 94.6634 56.6267 94.2434 56.3C93.8467 55.9733 93.5317 55.5533 93.2984 55.04C93.065 54.5033 92.9484 53.8617 92.9484 53.115V41.67H90.5334V38.695H92.9484V32.675H96.7984V38.695H100.788V41.67H96.7984V51.89C96.845 52.5433 97.0434 53.0217 97.3934 53.325C97.7667 53.605 98.2217 53.745 98.7584 53.745C99.295 53.745 99.8084 53.6517 100.298 53.465C100.788 53.2783 101.15 53.1267 101.383 53.01L102.188 56.055ZM109.72 57.35C108.833 57.35 108.005 57.21 107.235 56.93C106.488 56.6267 105.835 56.2183 105.275 55.705C104.738 55.1917 104.307 54.585 103.98 53.885C103.677 53.185 103.525 52.4267 103.525 51.61C103.525 50.7467 103.712 49.965 104.085 49.265C104.458 48.565 104.983 47.9583 105.66 47.445C106.36 46.9317 107.177 46.535 108.11 46.255C109.067 45.975 110.117 45.835 111.26 45.835C112.123 45.835 112.975 45.9167 113.815 46.08C114.655 46.22 115.413 46.4183 116.09 46.675V45.415C116.09 44.0617 115.705 43.0117 114.935 42.265C114.165 41.495 113.057 41.11 111.61 41.11C110.63 41.11 109.662 41.2967 108.705 41.67C107.772 42.02 106.803 42.5333 105.8 43.21L104.61 40.76C106.967 39.1733 109.417 38.38 111.96 38.38C114.48 38.38 116.44 39.0217 117.84 40.305C119.24 41.5883 119.94 43.4317 119.94 45.835V52.45C119.94 53.2667 120.278 53.6867 120.955 53.71V57C120.582 57.07 120.255 57.1167 119.975 57.14C119.718 57.1633 119.462 57.175 119.205 57.175C118.458 57.175 117.875 56.9883 117.455 56.615C117.058 56.2417 116.813 55.7633 116.72 55.18L116.615 54.025C115.798 55.0983 114.783 55.9267 113.57 56.51C112.38 57.07 111.097 57.35 109.72 57.35ZM110.77 54.515C111.703 54.515 112.578 54.3517 113.395 54.025C114.235 53.675 114.888 53.1967 115.355 52.59C115.845 52.17 116.09 51.7267 116.09 51.26V48.845C115.437 48.5883 114.737 48.39 113.99 48.25C113.267 48.11 112.555 48.04 111.855 48.04C110.478 48.04 109.347 48.3433 108.46 48.95C107.597 49.5333 107.165 50.315 107.165 51.295C107.165 52.205 107.503 52.975 108.18 53.605C108.857 54.2117 109.72 54.515 110.77 54.515ZM123.421 47.83C123.421 46.5467 123.642 45.3333 124.086 44.19C124.529 43.0467 125.159 42.0433 125.976 41.18C126.816 40.3167 127.819 39.64 128.986 39.15C130.152 38.6367 131.459 38.38 132.906 38.38C134.796 38.38 136.417 38.8 137.771 39.64C139.147 40.4567 140.174 41.5533 140.851 42.93L137.106 44.12C136.662 43.35 136.067 42.755 135.321 42.335C134.574 41.8917 133.746 41.67 132.836 41.67C132.066 41.67 131.342 41.8217 130.666 42.125C130.012 42.4283 129.441 42.86 128.951 43.42C128.461 43.9567 128.076 44.5983 127.796 45.345C127.516 46.0917 127.376 46.92 127.376 47.83C127.376 48.7167 127.516 49.545 127.796 50.315C128.099 51.0617 128.496 51.715 128.986 52.275C129.499 52.835 130.082 53.2783 130.736 53.605C131.412 53.9083 132.124 54.06 132.871 54.06C133.337 54.06 133.804 54.0017 134.271 53.885C134.737 53.745 135.157 53.5583 135.531 53.325C135.927 53.0917 136.266 52.8233 136.546 52.52C136.849 52.2167 137.071 51.89 137.211 51.54L140.991 52.66C140.384 54.0367 139.369 55.1683 137.946 56.055C136.522 56.9183 134.842 57.35 132.906 57.35C131.482 57.35 130.187 57.0933 129.021 56.58C127.854 56.0667 126.851 55.3783 126.011 54.515C125.194 53.6283 124.552 52.6133 124.086 51.47C123.642 50.3267 123.421 49.1133 123.421 47.83ZM154.347 56.055C153.857 56.2883 153.18 56.5567 152.317 56.86C151.453 57.14 150.532 57.28 149.552 57.28C148.945 57.28 148.373 57.1983 147.837 57.035C147.3 56.8717 146.822 56.6267 146.402 56.3C146.005 55.9733 145.69 55.5533 145.457 55.04C145.223 54.5033 145.107 53.8617 145.107 53.115V41.67H142.692V38.695H145.107V32.675H148.957V38.695H152.947V41.67H148.957V51.89C149.003 52.5433 149.202 53.0217 149.552 53.325C149.925 53.605 150.38 53.745 150.917 53.745C151.453 53.745 151.967 53.6517 152.457 53.465C152.947 53.2783 153.308 53.1267 153.542 53.01L154.347 56.055ZM176.511 53.64C177.817 53.64 178.902 53.3833 179.766 52.87C180.629 52.3567 181.317 51.6917 181.831 50.875C182.367 50.035 182.741 49.09 182.951 48.04C183.184 46.9667 183.301 45.87 183.301 44.75V32.15H187.256V44.75C187.256 46.4533 187.057 48.0633 186.661 49.58C186.264 51.0733 185.634 52.3917 184.771 53.535C183.907 54.655 182.787 55.5417 181.411 56.195C180.057 56.8483 178.424 57.175 176.511 57.175C174.527 57.175 172.847 56.8367 171.471 56.16C170.117 55.46 169.021 54.5383 168.181 53.395C167.341 52.2283 166.734 50.8983 166.361 49.405C165.987 47.9117 165.801 46.36 165.801 44.75V32.15H169.721V44.75C169.721 45.8933 169.826 47.0017 170.036 48.075C170.269 49.125 170.642 50.07 171.156 50.91C171.692 51.7267 172.392 52.3917 173.256 52.905C174.142 53.395 175.227 53.64 176.511 53.64ZM198.219 57.35C196.749 57.35 195.279 57.1167 193.809 56.65C192.362 56.16 191.114 55.4717 190.064 54.585L191.604 52.135C192.7 52.9283 193.785 53.535 194.859 53.955C195.932 54.3517 197.029 54.55 198.149 54.55C199.292 54.55 200.19 54.3283 200.844 53.885C201.52 53.4417 201.859 52.8117 201.859 51.995C201.859 51.225 201.485 50.665 200.739 50.315C199.992 49.965 198.825 49.58 197.239 49.16C196.095 48.8567 195.115 48.565 194.299 48.285C193.482 48.005 192.817 47.6783 192.304 47.305C191.79 46.9317 191.417 46.5 191.184 46.01C190.95 45.52 190.834 44.925 190.834 44.225C190.834 43.2917 191.009 42.4633 191.359 41.74C191.732 41.0167 192.234 40.41 192.864 39.92C193.517 39.4067 194.275 39.0217 195.139 38.765C196.002 38.5083 196.935 38.38 197.939 38.38C199.315 38.38 200.599 38.59 201.789 39.01C202.979 39.43 204.04 40.0367 204.974 40.83L203.329 43.14C201.625 41.7867 199.817 41.11 197.904 41.11C196.924 41.11 196.095 41.32 195.419 41.74C194.765 42.1367 194.439 42.7783 194.439 43.665C194.439 44.0383 194.509 44.3533 194.649 44.61C194.789 44.8667 195.01 45.0883 195.314 45.275C195.64 45.4617 196.049 45.6367 196.539 45.8C197.052 45.94 197.682 46.1033 198.429 46.29C199.665 46.5933 200.727 46.8967 201.614 47.2C202.524 47.5033 203.27 47.865 203.854 48.285C204.437 48.6817 204.869 49.16 205.149 49.72C205.429 50.2567 205.569 50.91 205.569 51.68C205.569 53.43 204.904 54.8183 203.574 55.845C202.267 56.8483 200.482 57.35 198.219 57.35Z" fill="#200F32"/>
</svg>
