<svg width="380" height="392" viewBox="0 0 380 392" fill="none" xmlns="http://www.w3.org/2000/svg">
<mask id="mask0" mask-type="alpha" maskUnits="userSpaceOnUse" x="0" y="0" width="380" height="392">
<path d="M0 0H380V392H0V0Z" fill="url(#paint0_linear)"/>
</mask>
<g mask="url(#mask0)">
<path d="M-7.28025 57.8676C-5.65095 59.9722 -3.4849 62.5981 -1.85561 64.7027C-1.31885 65.2239 -0.782102 65.745 0.253373 65.7053C2.86108 66.1471 3.95362 67.7305 4.56646 70.4158C4.66156 73.121 6.27183 74.6847 8.87954 75.1265C9.91501 75.0868 10.4518 75.6079 11.5063 76.1092C11.986 75.0073 12.4656 73.9054 12.9453 72.8034C13.9047 70.5996 14.9402 70.56 17.0492 71.5627C17.5669 71.5428 17.586 72.0839 18.1037 72.064C18.6405 72.5852 19.6759 72.5454 20.2127 73.0666C20.1747 71.9845 20.1556 71.4435 19.5999 70.3813C17.9325 67.1946 17.8184 63.9484 18.7207 60.1214C19.1814 58.4785 20.1788 57.3566 21.1763 56.2348C21.675 55.674 23.2853 57.2376 24.3397 57.739C24.8765 58.2602 25.3942 58.2402 26.4678 59.2826C26.4297 58.2005 26.3917 57.1185 26.3727 56.5774C24.6483 51.7676 25.5126 46.8586 27.9681 42.9721C28.4478 41.8701 29.4833 41.8305 30.4997 41.2498C30.9985 40.6889 32.0149 40.1081 31.9959 39.567C30.8082 35.2784 32.727 30.8708 33.1116 27.0637C33.4962 23.2565 33.8618 18.9083 33.7287 15.121C33.6526 12.9569 34.631 11.2941 35.6094 9.63127C36.6068 8.50949 38.6968 8.9712 39.7894 10.5546C40.9199 13.2201 42.0505 15.8856 43.1811 18.5511C44.3497 22.2987 45.5183 26.0463 47.2047 29.774C48.91 34.0427 51.1331 38.2917 51.3043 43.161C51.3233 43.702 52.3778 44.2033 52.8956 44.1834C54.9665 44.104 55.5223 45.1663 56.1161 47.3106C57.2847 51.0582 57.4179 54.8455 55.9978 58.6923C55.5371 60.3352 56.0739 60.8564 57.6271 60.7969C62.2677 60.0772 63.878 61.6408 62.496 66.5697C62.0353 68.2126 61.5746 69.8556 61.1139 71.4985C60.6532 73.1415 61.171 73.1217 62.2065 73.082C65.8116 72.4021 66.9041 73.9854 67.0373 77.7727C67.1514 81.0189 66.211 83.7637 64.7719 87.0695C64.7909 87.6105 64.7909 87.6106 64.3112 88.7126C65.3467 88.6729 65.8454 88.112 66.8809 88.0723C69.4316 86.8909 71.0418 88.4545 70.6192 91.1796C70.2156 94.4457 68.7575 97.2104 67.8171 99.9553C67.3564 101.598 67.3945 102.68 67.4515 104.303C68.1214 108.612 66.6823 111.918 65.2623 115.764C64.3029 117.968 63.3244 119.631 63.9183 121.775C64.5501 125.002 63.092 127.766 61.6339 130.531C59.6961 134.398 58.276 138.245 56.856 142.092C57.3737 142.072 57.3927 142.613 57.9105 142.593C58.4092 142.032 58.9079 141.471 59.3876 140.369C59.8483 138.726 60.8267 137.064 61.2874 135.421C61.729 133.237 63.2442 132.095 65.3151 132.015C67.3671 131.395 67.8468 130.293 68.8252 128.63C69.7655 125.885 70.1692 122.619 73.2185 120.877C76.2489 118.594 77.2463 117.472 79.7018 113.585C81.6587 110.26 83.6345 107.475 87.7764 107.317C88.8119 107.277 89.8093 106.155 90.308 105.594C92.7446 101.167 96.2546 97.7814 100.876 96.5207C101.893 95.9399 102.909 95.3593 103.408 94.7984C107.953 91.3735 112.48 87.4076 116.508 84.0026C117.025 83.9828 117.524 83.4218 117.524 83.4218C119.058 82.8213 119.595 83.3424 119.134 84.9853C118.194 87.7302 117.254 90.4751 116.313 93.22C115.853 94.863 115.392 96.5059 115.468 98.6701C115.582 101.916 114.642 104.661 113.165 106.885C112.167 108.007 112.224 109.63 112.78 110.692C113.891 112.817 113.431 114.46 111.935 116.142C110.956 117.805 110.477 118.907 110.553 121.071C110.572 121.612 111.108 122.133 111.108 122.133C112.163 122.635 113.735 123.116 115.307 123.598C117.283 120.813 120.295 117.989 122.769 114.643C123.748 112.98 125.263 111.839 126.873 113.402C130.863 108.915 135.351 103.867 138.823 99.4001C142.295 94.9328 145.249 90.4855 148.204 86.0381C150.199 83.7945 152.193 81.5509 154.188 79.3074C154.687 78.7465 155.722 78.7067 156.24 78.6869C156.278 79.769 156.834 80.8312 156.853 81.3722C154.013 89.0659 151.154 96.2185 147.796 103.932C146.357 107.238 145.435 110.524 144.514 113.81C144.053 115.452 143.075 117.115 142.116 119.319C142.135 119.86 141.655 120.962 142.173 120.942C144.301 122.486 143.84 124.129 143.379 125.772C140.962 130.741 139.58 135.669 135.571 139.616L135.59 140.157C139.29 142.182 139.328 143.264 137.908 147.111C136.507 151.498 134.569 155.365 131.04 158.209C130.542 158.77 130.043 159.331 129.544 159.892C132.247 163.039 132.803 164.101 130.347 167.988C128.39 171.313 125.878 173.577 123.384 176.381C122.886 176.942 122.368 176.962 121.869 177.523C124.534 179.588 125.128 181.732 123.133 183.976C122.135 185.097 121.138 186.219 120.14 187.341C121.694 187.281 123.247 187.222 124.301 187.723C124.819 187.703 125.874 188.205 126.41 188.726C126.429 189.267 125.931 189.828 125.432 190.389C124.933 190.949 124.435 191.51 124.99 192.573C125.028 193.655 124.53 194.216 123.494 194.255C119.87 194.394 117.894 197.179 116.436 199.944C115.458 201.606 114.997 203.249 114.019 204.912C113.04 206.575 111.544 208.258 111.121 210.983C111.159 212.065 109.644 213.206 108.647 214.328C107.649 215.45 106.652 216.572 105.156 218.254C104.158 219.376 104.695 219.897 105.75 220.399C107.322 220.88 108.357 220.84 109.91 220.781C111.464 220.721 112.48 220.141 114.052 220.622C115.107 221.123 116.123 220.543 117.159 220.503C118.674 219.361 120.227 219.302 121.837 220.865C121.837 220.865 121.837 220.865 122.355 220.846C124.963 221.287 127.091 222.831 129.2 223.834C131.808 224.276 134.876 223.074 137.963 222.414C140.015 221.794 141.032 221.213 143.141 222.216C145.25 223.218 147.34 223.68 149.928 223.581C153.035 223.462 156.179 224.425 158.787 224.866C159.305 224.847 160.378 225.889 160.397 226.43C160.416 226.971 159.937 228.073 159.419 228.093C156.906 230.356 154.375 232.079 152.361 233.781C149.848 236.045 149.886 237.127 152.052 239.752C153.662 241.316 153.739 243.48 153.297 245.664C152.836 247.307 153.411 248.91 154.983 249.392C157.092 250.395 157.686 252.539 157.244 254.723C156.822 257.448 158.912 257.91 160.503 258.932C161.04 259.453 162.555 258.312 163.571 257.731C166.084 255.467 168.06 252.683 171.147 252.023C171.665 252.003 172.145 250.901 172.643 250.34C173.622 248.677 174.082 247.034 175.598 245.893C176.576 244.23 178.11 243.629 180.2 244.091C181.772 244.572 182.77 243.451 183.25 242.349C184.228 240.686 185.225 239.564 186.741 238.423C188.256 237.281 189.809 237.221 191.381 237.703C192.972 238.725 193.97 237.604 195.485 236.462C197.461 233.677 199.954 230.873 204.134 231.796C204.652 231.776 205.669 231.196 206.685 230.615C209.198 228.351 211.71 226.088 215.909 227.552C216.427 227.533 217.462 227.493 218.479 226.912C221.509 224.629 224.578 223.428 228.183 222.748C230.254 222.668 232.249 220.425 233.783 219.824C235.317 219.224 236.851 218.623 238.385 218.023C239.421 217.983 239.939 217.963 240.955 217.382C247.571 213.878 254.169 209.833 259.156 204.224C259.655 203.663 260.173 203.643 260.154 203.102C261.17 202.521 262.224 203.023 262.282 204.646C262.32 205.728 261.84 206.83 261.341 207.391C259.422 211.798 256.967 215.685 255.048 220.093C254.549 220.653 254.587 221.735 254.606 222.277C254.241 226.625 252.303 230.491 250.346 233.817C249.368 235.48 248.888 236.582 249.482 238.726C250.133 242.493 248.694 245.799 246.181 248.063C245.184 249.184 244.704 250.286 244.761 251.909C245.374 254.595 244.452 257.881 241.921 259.603C240.406 260.745 239.926 261.847 240.501 263.45C241.65 266.656 240.691 268.86 237.623 270.061C234.573 271.804 234.573 271.804 235.224 275.571C235.799 277.174 235.338 278.817 233.804 279.418C232.27 280.018 230.736 280.619 229.201 281.22C227.15 281.84 226.689 283.483 227.781 285.066C229.411 287.171 228.931 288.273 226.898 289.434C226.399 289.995 225.383 290.576 224.884 291.137C224.385 291.698 223.369 292.279 223.407 293.361C223.445 294.443 223.483 295.525 224.02 296.046C224.039 296.587 226.091 295.967 226.59 295.406C229.102 293.142 231.634 291.42 234.702 290.219C235.719 289.638 236.754 289.598 237.272 289.578C240.359 288.918 240.896 289.439 241.528 292.666C242.141 295.351 243.195 295.853 245.727 294.13C248.757 291.847 251.787 289.564 255.91 288.864C258.48 288.224 259.017 288.745 259.112 291.45C259.226 294.696 261.335 295.699 263.886 294.518C266.436 293.336 268.987 292.155 272.074 291.495C273.091 290.914 274.145 291.415 275.181 291.376C276.734 291.316 277.29 292.378 277.347 294.001C277.442 296.707 278.496 297.208 281.066 296.568C283.617 295.386 286.685 294.185 289.255 293.545C291.824 292.905 292.898 293.947 292.993 296.652C293.107 299.899 294.2 301.482 297.268 300.281C300.336 299.079 302.925 298.98 306.07 299.943C306.606 300.464 307.661 300.966 307.68 301.507C308.274 303.651 309.846 304.133 311.399 304.073C314.506 303.954 317.094 303.855 320.201 303.736C320.718 303.716 321.792 304.758 322.329 305.279C322.884 306.342 323.939 306.843 324.974 306.803C329.135 307.186 333.296 307.568 337.438 307.409C342.635 307.751 347.313 308.114 352.51 308.457C355.098 308.357 357.188 308.819 359.796 309.261C360.314 309.241 360.869 310.303 361.387 310.283C360.889 310.844 360.908 311.385 360.409 311.946C357.34 313.147 354.79 314.328 351.721 315.53C349.171 316.711 346.121 318.453 343.571 319.635C342.554 320.215 341.538 320.796 341.02 320.816C339.467 320.875 338.469 321.997 337.99 323.099C337.51 324.201 335.976 324.802 334.959 325.382C333.425 325.983 332.409 326.564 330.856 326.623C328.804 327.244 327.787 327.824 327.365 330.549C327.403 331.631 326.405 332.753 325.37 332.793C323.835 333.394 322.301 333.994 321.266 334.034C318.159 334.153 318.178 334.694 317.775 337.96C317.794 338.501 316.796 339.623 316.298 340.184C313.728 340.824 311.158 341.464 308.589 342.105C308.071 342.124 307.035 342.164 306 342.204C304.447 342.263 303.449 343.385 304.043 345.53C304.637 347.674 303.659 349.336 301.569 348.875C298.462 348.994 295.356 349.113 292.748 348.671C290.159 348.771 289.642 348.79 289.737 351.496C289.794 353.119 289.314 354.221 287.243 354.3C284.654 354.399 282.564 353.938 280.494 354.017C278.404 353.555 277.905 354.116 277.463 356.3C277.482 356.841 276.485 357.963 275.986 358.524C273.915 358.603 271.844 358.683 269.773 358.762C267.166 358.32 265.057 357.318 262.967 356.856C261.394 356.375 260.397 357.496 260.454 359.119C260.53 361.284 259.034 362.966 256.906 361.422C252.669 358.876 248.028 359.596 243.848 358.673C242.295 358.732 241.26 358.772 240.799 360.415C240.319 361.517 238.785 362.117 237.769 362.698C237.27 363.259 236.733 362.738 235.18 362.797C237.289 363.8 239.398 364.803 241.488 365.264C243.06 365.746 244.134 366.788 243.692 368.972C243.25 371.156 244.286 371.116 245.839 371.057C249.444 370.377 252.57 370.799 255.733 372.303C257.324 373.325 257.343 373.866 256.365 375.529C255.885 376.631 255.406 377.733 254.427 379.396C257.553 379.818 260.659 379.699 263.267 380.141C265.874 380.582 268.501 381.565 270.61 382.568C273.237 383.551 273.275 384.633 271.28 386.876C271.28 386.876 271.299 387.417 270.781 387.437C271.318 387.958 271.836 387.938 272.354 387.919C276.572 389.924 280.253 391.408 284.471 393.414C285.007 393.935 285.563 394.997 286.1 395.518C286.637 396.039 286.656 396.58 287.193 397.102C289.838 398.626 291.947 399.628 294.593 401.152C297.776 403.197 300.958 405.242 304.121 406.746C306.23 407.749 308.838 408.191 310.928 408.652C313.555 409.635 315.664 410.638 318.291 411.621C318.827 412.142 319.383 413.204 319.92 413.725C318.903 414.306 318.405 414.867 317.369 414.907C315.816 414.966 313.745 415.045 312.653 413.462C312.116 412.941 311.08 412.981 310.563 413.001C309.066 414.683 307.494 414.202 305.941 414.261C301.262 413.899 297.101 413.517 292.423 413.154C290.87 413.214 289.815 412.712 288.262 412.772C289.891 414.876 290.984 416.46 292.594 418.023C186.039 410.19 79.5039 402.897 -26.5329 395.043C-22.1863 282.731 -14.7333 170.299 -7.28025 57.8676Z" fill="#200F32"/>
</g>
<defs>
<linearGradient id="paint0_linear" x1="720.001" y1="391.982" x2="720.001" y2="-150" gradientUnits="userSpaceOnUse">
<stop stop-color="white"/>
<stop offset="1" stop-color="#A2A9D0"/>
</linearGradient>
</defs>
</svg>
