<svg width="2520" height="542" viewBox="0 0 2520 542" fill="none" xmlns="http://www.w3.org/2000/svg">
<mask id="mask0" mask-type="alpha" maskUnits="userSpaceOnUse" x="0" y="0" width="2520" height="542">
<rect width="2520" height="542" fill="url(#paint0_linear)"/>
</mask>
<g mask="url(#mask0)">
<rect width="2520" height="542" fill="url(#paint1_linear)"/>
<path d="M1978 324.145C1938.71 312.531 1899.42 301.363 1858.21 291.982C1793.52 279.028 1734.1 244.632 1674.68 258.033C1566.87 284.389 1469.6 339.333 1350.76 344.693C1259.24 350.054 1188.8 300.023 1107.82 273.668C1096.8 270.988 1086.26 273.668 1075.24 273.668C1015.82 283.942 988.986 325.932 929.568 307.617C805.462 268.307 762.337 199.962 632.481 160.652C597.501 150.378 566.834 153.058 540 161.545V557.324C647.814 559.557 756.586 560.451 864.88 554.197C1015.82 543.476 1107.34 541.242 1242.47 507.293C1312.43 488.978 1393.89 451.902 1474.87 438.948C1593.7 423.313 1696.25 391.597 1815.08 381.323C1868.75 377.303 1923.85 376.856 1978 379.983" fill="url(#paint2_linear)"/>
<path d="M-686 324.145C-646.708 312.531 -607.416 301.363 -566.207 291.982C-501.518 279.028 -442.101 244.632 -382.683 258.033C-274.869 284.389 -177.597 339.333 -58.7618 344.693C32.7603 350.054 -16.8011 300.023 64.1793 273.668C75.2003 270.988 85.7421 273.668 96.7631 273.668C156.181 283.942 183.014 325.932 242.432 307.617C366.538 268.307 409.663 199.962 539.519 160.652C574.499 150.378 605.166 153.058 632 161.545V557.324C524.186 559.557 415.414 560.451 307.12 554.197C156.181 543.476 64.6584 571.242 -70.4686 537.293C-140.428 518.978 -101.887 451.902 -182.868 438.948C-301.703 423.313 -404.246 391.597 -523.081 381.323C-576.749 377.303 -631.853 376.856 -686 379.983" fill="url(#paint3_linear)"/>
<path d="M1828.3 264.554C1717.77 281.157 1622.11 331.777 1511.19 356.884C1435.73 377.942 1355.31 327.322 1289.75 356.884C1163.97 411.554 1083.55 524.942 942.528 541.546C908.225 545.19 874.303 547.215 840 548.43V791H1980V262.124C1929.31 257.265 1878.23 258.074 1828.3 264.554Z" fill="url(#paint4_linear)"/>
<path d="M1980 478.652C1670.4 501.511 1365.6 452.745 1070.88 356.229C989.76 336.926 898.08 326.766 816.96 331.846C185.5 302.5 240.5 56 -2.5 56V546.5L1980 851" fill="#73A6C4"/>
<path d="M2518.5 129.5C2109 154.5 1752.46 331.529 1668.5 434.621C1638.49 471.496 1581.13 533.748 1529.85 527.404C1348.65 505.596 1313.7 598.776 1202.4 615.032C1071.72 634.065 953.202 619.394 840 680.853V755L2518.5 615.032" fill="#6391C9"/>
<path opacity="0.2" d="M2519.5 129.5C2135 147.5 1845.65 309.587 1787.82 341.175C1809.01 484.822 1684.01 569.055 1558.64 601.77C1534.21 610.419 1510.15 639.75 1490.03 665.321C1453.75 699.165 1404.9 703.301 1360.71 699.165C1283.84 699.165 1203.02 665.321 1126.14 690.516C1102.8 697.661 1081.96 711.95 1064 730L2519.5 539V129.5Z" fill="url(#paint5_linear)"/>
</g>
<defs>
<linearGradient id="paint0_linear" x1="1260" y1="541.982" x2="1260" y2="0" gradientUnits="userSpaceOnUse">
<stop offset="0.343737" stop-color="#9DD8D6"/>
<stop offset="1" stop-color="#6391C9"/>
</linearGradient>
<linearGradient id="paint1_linear" x1="1260" y1="541.982" x2="1260" y2="0" gradientUnits="userSpaceOnUse">
<stop stop-color="white"/>
<stop offset="1" stop-color="#A2A9D0"/>
</linearGradient>
<linearGradient id="paint2_linear" x1="1259.24" y1="278.817" x2="1259.24" y2="389.973" gradientUnits="userSpaceOnUse">
<stop stop-color="#6BA6AE"/>
<stop offset="1" stop-color="#8AC6BF"/>
</linearGradient>
<linearGradient id="paint3_linear" x1="-87.2397" y1="278.817" x2="-87.2397" y2="389.972" gradientUnits="userSpaceOnUse">
<stop stop-color="#6BA6AE"/>
<stop offset="1" stop-color="#8AC6BF"/>
</linearGradient>
<linearGradient id="paint4_linear" x1="1382.76" y1="313.69" x2="1421.44" y2="580.673" gradientUnits="userSpaceOnUse">
<stop stop-color="#6BA6AE"/>
<stop offset="1" stop-color="#8AC6BF"/>
</linearGradient>
<linearGradient id="paint5_linear" x1="1501.72" y1="485.312" x2="1952.46" y2="875.645" gradientUnits="userSpaceOnUse">
<stop stop-opacity="0"/>
<stop offset="1"/>
</linearGradient>
</defs>
</svg>
