<svg width="10" height="21" viewBox="0 0 10 21" fill="none" xmlns="http://www.w3.org/2000/svg">
<path d="M2.15758 4.31166C2.15341 4.83401 2.15523 7.16004 2.15523 7.16004L0.0718173 7.15493L0.0699583 10.6377L2.15338 10.6428L2.15402 20.9807L6.44391 20.9881L6.44498 10.6392L9.32112 10.6356C9.32112 10.6356 9.59512 8.96496 9.72477 7.14925C9.34643 7.14536 6.45942 7.14735 6.45942 7.14735C6.45942 7.14735 6.45497 5.12137 6.45526 4.76532C6.45556 4.40927 6.91995 3.93707 7.38872 3.93294C7.8466 3.92709 8.82593 3.93652 9.72912 3.93397C9.72646 3.45505 9.72747 1.8194 9.72973 0.317484C8.52604 0.317265 7.1558 0.313093 6.5531 0.318413C2.05143 0.311156 2.16004 3.80016 2.15758 4.31166Z" fill="#2A4898"/>
</svg>
