<svg width="176" height="247" viewBox="0 0 176 247" fill="none" xmlns="http://www.w3.org/2000/svg">
<path d="M88 0C39.408 0 0 39.3813 0 87.9404C0 136.5 69.1643 246.433 88 246.4C106.235 246.367 176 136.5 176 87.9404C175.967 39.3813 136.592 0 88 0Z" fill="white"/>
<path d="M88.0002 4.32001C41.4402 4.32001 3.68018 42.08 3.68018 88.64C3.68018 135.2 69.9522 240.608 88.0002 240.576C105.472 240.544 172.32 135.2 172.32 88.64C172.288 42.08 134.56 4.32001 88.0002 4.32001Z" fill="#200F32"/>
<path d="M153.651 84.7337C153.651 120.733 110.438 184.381 87.9999 184.381C67.0368 184.381 22.3491 120.733 22.3491 84.7337C22.3491 48.7346 51.7225 19.5555 87.9999 19.5555C124.277 19.5555 153.651 48.7346 153.651 84.7337Z" fill="white"/>
<path fill-rule="evenodd" clip-rule="evenodd" d="M43.5148 133.488C44.7049 134.585 46.5535 134.454 47.6344 133.25C48.6385 132.131 49.3424 131.339 49.5955 131.04C50.3955 130.144 51.1635 129.216 51.9315 128.288C53.0195 127.04 54.3635 126.4 55.7075 126.304H55.8035H55.8995C57.2755 126.368 58.6195 127.04 59.6755 128.288C59.8995 128.56 60.1315 128.832 60.3635 129.104C60.5955 129.376 60.8275 129.648 61.0515 129.92C61.7875 130.784 62.6515 131.584 63.5795 132.256C66.4275 134.304 69.3075 132.576 71.3235 130.336C74.962 126.312 78.5279 122.197 82.0896 118.088C83.2579 116.739 84.4257 115.392 85.5955 114.048C85.9085 113.693 86.3161 113.224 86.7936 112.675C89.9779 109.012 96.2681 101.776 98.2995 101.024C100.859 100.096 103.547 101.12 105.371 103.008C107.671 105.393 119.629 119.065 128.357 129.044C129.037 129.821 129.697 130.575 130.331 131.3C131.439 132.568 133.379 132.678 134.566 131.484C146.362 119.615 153.651 103.262 153.651 85.2063C153.651 48.9484 124.258 19.5555 87.9999 19.5555C51.742 19.5555 22.3491 48.9484 22.3491 85.2063C22.3491 104.301 30.5012 121.492 43.5148 133.488Z" fill="url(#paint0_linear)"/>
<path d="M87.9991 185.778C110.509 182.984 153.65 128.508 161.279 58.848C161.215 54.24 160.895 49.696 160.191 45.28C167.775 57.952 172.159 72.768 172.159 88.608C172.159 135.168 105.887 240.576 87.8387 240.544C72.8307 240.512 21.4067 162.784 7.19873 111.36C27.8707 158.56 62.1111 187.154 87.9991 185.778Z" fill="url(#paint1_linear)"/>
<path d="M88.0002 184.381C64.2545 182.984 15.3656 111.746 14.5602 58.848C14.6882 54.24 14.9442 49.696 15.6482 45.28C8.06418 57.984 3.68018 72.8 3.68018 88.64C3.68018 135.2 69.9522 240.608 88.0002 240.576C98.9122 240.544 129.088 199.424 150.208 157.216C158.112 141.376 129.833 186.842 88.0002 184.381Z" fill="url(#paint2_linear)"/>
<defs>
<linearGradient id="paint0_linear" x1="20.4682" y1="86.8386" x2="155.579" y2="86.8386" gradientUnits="userSpaceOnUse">
<stop stop-color="#FDC635"/>
<stop offset="1" stop-color="#FFA901"/>
</linearGradient>
<linearGradient id="paint1_linear" x1="150.171" y1="-44.4806" x2="93.5947" y2="98.3838" gradientUnits="userSpaceOnUse">
<stop stop-color="#3A1B5A"/>
<stop offset="0.3726" stop-color="#200F32"/>
</linearGradient>
<linearGradient id="paint2_linear" x1="95.1212" y1="168.888" x2="-24.9499" y2="-5.72438" gradientUnits="userSpaceOnUse">
<stop stop-color="#3A1B5A"/>
<stop offset="0.6775" stop-color="#200F32"/>
</linearGradient>
</defs>
</svg>
