<svg width="226" height="566" viewBox="0 0 226 566" fill="none" xmlns="http://www.w3.org/2000/svg">
<path d="M12.6186 205.443C14.3793 205.138 16.4335 205.138 18.4877 205.443C23.7698 206.053 27.5848 203 31.6931 200.558C33.7473 199.337 36.095 198.421 38.1491 197.2C40.2033 195.673 42.551 194.147 44.0182 192.01C46.0724 188.957 47.8331 185.598 51.6481 184.377C52.235 184.072 52.235 182.851 52.5284 181.935C52.8219 181.324 52.5284 180.408 53.1153 180.103C55.1695 177.966 56.0499 178.271 57.2237 181.324C57.8106 182.851 58.3975 184.072 59.2779 185.598C59.2779 188.957 58.9844 192.01 57.8106 195.063C60.4517 216.434 59.5713 233.225 50.4742 254.596C48.7135 258.565 47.2462 265.587 49.5939 269.25C51.9415 273.219 46.9528 277.798 45.779 282.989C45.1921 286.652 47.5397 290.01 51.0611 290.316C52.8219 290.621 53.9957 290.621 54.2892 290.621C58.9844 292.453 57.8106 295.811 57.8106 296.727C57.2237 302.528 56.0499 308.023 55.7564 313.518C55.463 319.93 56.0499 326.646 56.6368 333.057C56.9302 336.416 57.5172 339.774 57.8106 343.132C57.8106 351.986 58.691 360.534 60.1583 369.083C59.5713 371.83 60.1583 374.883 60.7452 378.242C61.3321 382.21 61.6255 386.179 62.2124 390.148C62.7993 395.644 63.9732 401.139 63.6797 406.634C63.3863 410.603 64.2666 414.877 66.6143 417.93C72.4834 425.868 68.9619 434.111 68.375 442.66C67.4946 451.208 67.2012 460.062 68.9619 468.61C71.0161 480.211 75.4179 491.507 78.3525 503.109C80.1132 509.825 80.7001 517.152 81.8739 523.869C81.8739 524.479 81.287 525.395 80.9936 525.395C78.3525 525.395 78.6459 526.922 79.2328 528.754C79.5263 529.669 79.2328 530.891 79.5263 532.112C80.4066 536.691 81.287 540.966 82.1674 545.545C82.4608 546.461 82.4608 548.293 82.1674 549.514C81.8739 552.262 81.5805 555.009 80.7001 557.757C79.8197 560.505 78.9394 563.558 77.4721 566H110.926C110.926 562.947 110.632 559.894 110.339 556.841C110.046 551.346 108.872 545.85 108.285 540.355C107.991 539.134 108.285 536.997 108.578 535.776C109.752 531.196 108.872 526.617 106.231 523.869C99.7747 516.847 103.59 508.909 103.296 501.582C103.296 499.445 103.883 497.308 104.176 494.866C105.35 480.211 106.524 465.252 104.176 450.597C102.709 440.522 104.176 431.058 107.698 421.594C107.698 421.289 107.991 421.289 107.991 420.983C108.578 417.625 109.165 414.572 111.806 411.824C113.86 409.687 114.447 406.024 115.328 402.665C117.088 396.865 118.556 391.064 120.317 385.569C120.903 390.454 122.077 395.338 122.371 400.528C122.371 403.887 120.903 407.245 120.61 410.298C120.61 411.214 120.903 412.74 121.784 413.046C124.718 414.572 125.892 416.404 126.773 420.067C128.533 427.7 132.055 435.027 134.109 442.965C135.283 448.155 135.87 453.65 135.87 458.84C135.576 467.083 133.815 475.632 134.402 483.875C134.989 493.034 137.337 502.498 138.804 511.657C139.391 515.015 139.978 518.068 140.271 521.426C140.271 522.037 139.685 522.953 139.098 523.564C136.457 525.701 136.75 529.059 139.685 531.196C140.271 531.501 140.565 533.333 140.271 533.638C135.87 538.523 134.696 545.85 137.63 551.956C137.924 552.872 137.924 554.093 137.924 555.009C137.63 558.368 137.63 561.726 137.043 564.779C137.043 565.084 136.75 565.695 136.75 566H180.181C179.301 561.726 177.834 558.062 175.486 555.315C174.606 554.093 173.432 552.872 171.965 552.567C168.443 551.346 168.443 549.209 168.737 546.156C169.03 543.103 168.737 540.05 168.15 537.302C167.856 535.47 165.802 533.944 165.509 532.112C165.215 528.754 165.509 525.395 166.095 522.037C167.563 512.573 169.323 503.414 171.084 493.95C172.258 487.233 173.432 480.517 174.312 473.8C175.486 465.557 174.312 457.314 171.671 449.681C168.443 440.217 169.617 430.448 169.617 420.678C169.617 420.067 171.084 419.457 171.965 418.541C172.845 417.625 173.725 416.709 174.019 415.793C174.606 408.771 174.606 401.75 175.193 394.728C176.953 381.295 179.301 367.861 180.768 354.428C181.649 345.269 181.062 336.11 181.062 326.952C181.062 326.036 181.942 324.814 181.942 323.899C181.649 321.151 181.355 318.403 181.062 315.655C181.062 315.045 180.768 314.129 180.768 313.518C180.768 305.886 180.768 298.253 180.768 290.621C180.768 290.316 181.942 289.4 182.529 289.4C184.29 289.705 185.463 289.705 185.757 287.263C186.05 284.515 186.637 281.462 187.518 278.714C187.811 278.104 189.278 277.188 189.865 277.493C194.267 278.409 195.441 276.883 196.028 271.693C196.321 270.166 196.615 268.64 197.202 267.113C198.669 263.755 197.789 261.618 194.561 260.396C193.68 260.091 192.506 259.175 192.506 258.259C191.919 252.153 191.333 246.047 190.746 240.247C190.452 237.194 190.159 234.446 189.865 231.393C189.865 230.477 189.278 229.561 189.572 228.951C190.746 226.203 188.985 224.371 188.398 221.929C187.811 220.097 188.691 217.96 189.278 215.823C189.865 213.075 191.333 211.549 193.387 214.602C193.387 214.602 193.387 214.602 193.68 214.907C198.962 217.349 203.951 219.792 209.233 221.929C210.407 222.54 212.755 221.624 213.929 220.402C216.276 217.96 218.33 215.212 220.385 212.77C220.972 211.854 221.265 210.633 220.972 209.412C220.091 205.443 221.265 202.085 223.613 198.726C227.428 193.231 226.547 189.262 221.852 183.767C221.852 183.461 221.852 183.461 221.558 183.156C221.852 180.103 221.558 177.355 220.972 174.608C220.385 171.249 218.624 168.502 216.57 166.059C215.983 165.449 214.516 164.533 213.342 163.617C211.874 161.175 210.701 159.037 209.233 156.595C208.94 156.29 208.646 155.679 208.646 155.069C209.527 146.826 207.179 138.888 204.538 131.255C202.484 126.065 199.256 121.181 196.321 116.296C196.028 115.685 196.028 115.38 195.734 114.769C196.321 114.769 196.615 114.464 197.202 114.464C197.495 114.464 197.789 114.464 198.082 114.464C206.592 114.464 205.125 115.685 206.299 106.831C207.179 99.5043 206.005 91.8719 205.712 84.5447C205.712 83.9341 204.245 82.7129 203.364 82.7129C193.974 82.7129 184.583 83.0182 175.193 83.3235C174.606 83.3235 174.019 83.3235 173.725 83.3235C173.138 81.797 172.551 80.5758 171.965 79.0494C171.084 77.5229 169.617 75.9964 169.03 74.1646C168.737 72.9434 168.443 72.0275 168.15 70.8063C168.15 69.8904 168.15 68.9745 167.563 68.3639C167.563 68.0586 167.269 67.448 166.976 67.1427C164.041 60.7315 157.292 59.8156 151.129 58.5944C151.716 55.5414 152.303 52.1831 152.597 48.8248C152.597 47.6036 151.129 46.3824 150.249 45.1613C149.955 44.856 149.369 44.2454 149.662 43.9401C149.662 38.4447 150.249 32.644 149.955 27.1487C149.955 24.0957 148.488 21.348 147.608 18.295C147.314 17.3791 146.434 16.1579 146.434 15.242C146.434 11.5785 143.499 10.052 141.739 7.60957C139.098 3.94599 135.576 3.6407 131.761 3.3354C130.001 2.1142 127.946 0.893012 125.599 0.282415C121.784 -0.633479 118.262 0.893012 114.447 1.80891C107.404 3.6407 102.709 9.74666 103.59 16.4632C102.709 17.6844 101.829 18.9056 100.948 19.8215C96.5467 24.401 96.8401 30.2016 95.9597 36.0023C95.3728 39.6659 95.9597 43.3295 93.3186 46.6877C92.4383 47.9089 93.9056 51.5725 94.4925 54.0149C94.7859 55.8467 95.0794 57.9838 95.0794 60.1209C92.7318 60.1209 90.3841 60.4262 88.0365 60.4262C87.743 60.4262 87.1561 60.1209 86.8626 60.1209C82.1674 62.258 77.1786 64.0897 72.7768 66.5321C71.603 67.1427 70.7226 69.2798 70.7226 70.8063C70.7226 74.7752 71.3095 78.4388 71.8964 82.4076C72.1899 84.5447 71.3095 85.1553 69.5488 85.1553C59.5713 84.85 49.5939 84.85 39.323 84.5447C36.3884 84.5447 35.508 85.4606 35.8015 88.2083C36.095 95.5355 35.8015 102.557 35.8015 109.884C35.8015 112.937 36.6819 114.464 40.2033 114.159C42.8444 113.853 45.4855 113.853 48.1266 113.548C50.4742 113.853 52.8219 114.464 55.463 114.769C55.1695 114.769 54.8761 114.769 54.8761 114.769C53.7022 115.075 51.9415 115.685 51.3546 116.906C50.1808 118.433 49.5939 120.57 48.4201 122.096C47.2462 123.623 45.779 124.844 44.3117 126.371C42.8444 127.897 41.3771 129.424 39.9099 130.645C33.7473 134.614 28.7586 139.498 24.6502 145.604C22.596 148.963 21.1288 152.626 19.6615 156.595C19.0746 157.206 18.4877 157.816 17.9007 158.122C14.0858 160.869 10.2709 163.312 6.74946 166.059C1.76073 169.723 0.58691 175.218 2.34764 181.324C2.93455 183.156 2.05418 185.293 1.46727 187.125C0.880365 189.567 0 192.01 0 194.147C0 196.589 0.880365 199.032 1.76073 201.169C3.228 205.748 6.74946 206.969 12.6186 205.443Z" fill="#200F32"/>
</svg>
