<svg width="124" height="124" viewBox="0 0 124 124" fill="none" xmlns="http://www.w3.org/2000/svg">
<g clip-path="url(#clip0)">
<path d="M108.722 22.1852C100.541 11.8023 88.7215 4.67382 75.8957 1.70361C63.0183 -1.29243 48.9022 -0.388455 36.6957 4.77714C24.4118 9.99438 13.857 19.4991 7.37958 31.1475C0.256995 43.984 -1.3172 59.8165 0.979576 74.151C1.57312 77.8702 2.50216 81.512 3.81829 85.0246C4.257 86.2385 6.19248 85.7478 5.83119 84.5597C5.96022 84.3531 6.01183 84.0948 5.93441 83.8107C3.8957 75.2358 3.457 66.2993 3.61183 57.5178C3.74087 50.2085 5.00538 43.08 8.05054 36.3905C13.4957 24.4064 23.3796 14.5659 35.3022 9.01292C48.0764 3.07249 62.8893 2.68507 76.2828 6.66258C90.2699 10.8209 103.147 19.8348 110.941 32.2839C115.302 39.2833 117.444 47.1091 118.347 55.2708C118.812 59.4549 119.018 63.6649 119.199 67.849C119.251 69.1921 119.302 70.5093 119.302 71.8523C119.147 72.0073 119.044 72.2139 119.018 72.498C117.392 87.5557 108.67 101.477 96.386 110.207C90.2441 114.572 83.2505 117.645 75.8441 119.014C70.8118 119.944 65.6764 120.151 60.5667 120.125C55.586 120.125 50.5796 119.867 45.6764 118.988C36.1022 117.258 26.5538 112.945 20.7989 104.809C20.4118 104.266 19.7667 104.266 19.3022 104.525C19.3022 104.473 19.3022 104.421 19.3022 104.37C21.3151 96.1048 23.586 87.9173 28.2828 80.7372C29.186 79.3424 30.1667 78.0252 31.1989 76.7338C32.5409 75.2875 33.9086 73.8927 35.2505 72.4722C35.6376 72.059 36.0247 71.6715 36.386 71.2583C39.0699 68.8305 41.986 66.6867 45.1344 64.8788C48.1796 67.0742 51.6634 68.4172 55.2764 68.9854C63.2764 70.6384 72.4893 69.9927 78.1925 63.6649C78.1925 63.9748 78.3473 64.2847 78.7086 64.4655C84.386 67.2808 89.5473 70.9742 94.0376 75.4166C94.6828 76.6822 95.2505 77.9736 95.8699 79.2391C97.057 81.6153 98.2441 83.9915 99.4054 86.3935C99.8699 87.3233 101.057 86.8842 101.263 86.0835C101.857 86.316 102.709 86.0061 102.786 85.1796C103.018 82.0802 101.444 79.3424 99.6893 76.8888C98.0893 74.6676 96.386 72.5239 94.4505 70.5868C92.3086 68.4172 89.8828 66.4801 87.2247 65.0338C85.6764 63.0708 83.7667 61.392 81.5473 60.1264C81.2376 59.9456 80.9538 59.9456 80.6957 60.049C81.057 59.4291 81.3667 58.7834 81.6764 58.1119C82.3215 57.1821 82.8893 56.2006 83.3796 55.1675C84.928 51.8357 85.2635 48.2972 84.7731 44.6813C84.5151 42.7184 84.0506 40.7296 83.3538 38.8442C83.3022 38.6118 83.2247 38.3793 83.1731 38.1469C81.8054 33.1879 78.8635 28.7971 74.5022 26.0335C70.3473 23.3991 65.2893 22.2885 60.4118 22.805C55.2764 23.3474 50.2957 25.4912 46.2183 28.7455C42.7086 29.8044 40.2828 33.2654 38.8634 36.468C37.9602 38.4568 37.4699 40.4455 37.2376 42.4859C36.0505 47.4966 36.5409 52.7655 38.7344 57.3112C39.3796 59.1191 40.3602 60.7721 41.8828 62.0119C42.1925 62.3476 42.5022 62.6834 42.8118 62.9933C39.8699 63.949 37.3925 65.7569 35.0183 67.694C32.257 69.9669 29.4957 72.2656 27.0183 74.8225C22.0893 79.9365 19.2764 86.2902 16.5925 92.7471C16.2312 93.5995 17.1086 94.116 17.8312 93.9352C16.9796 97.2929 16.7731 100.78 17.186 104.215C17.1602 104.318 17.1344 104.396 17.1086 104.499C17.0312 104.86 17.1086 105.145 17.2893 105.377C17.2893 105.609 17.3667 105.868 17.5731 106.074C23.5344 112.531 31.1215 117.31 39.3538 120.28C47.7667 123.327 56.8764 124.49 65.8054 123.844C75.0183 123.172 84.0764 120.564 92.1538 116.07C100.644 111.343 107.87 104.525 113.16 96.3631C115.018 93.522 116.67 90.4743 118.089 87.2974C118.296 87.22 118.476 87.065 118.605 86.8067C119.431 85.0504 120.025 83.2166 120.438 81.357C122.554 75.2358 123.792 68.8046 123.947 62.4768C124.386 47.6515 117.754 33.627 108.722 22.1852ZM82.7086 6.74006C76.2828 4.13144 69.3925 2.5301 62.4247 2.09103C63.8957 2.11686 65.3409 2.19434 66.8118 2.32348C79.5344 3.43408 91.9731 8.54802 101.392 17.252C104.283 19.9123 106.838 22.9084 109.134 26.0852C102.27 17.4587 92.8247 10.8209 82.7086 6.74006ZM100.747 84.3789C99.7409 82.3385 98.7344 80.3239 97.728 78.2835C97.8312 78.2318 97.9602 78.1285 98.0376 78.0252C99.3796 79.9365 100.67 82.0027 100.747 84.3789ZM80.5409 61.8827C81.057 62.1927 81.5473 62.5026 82.0376 62.8384C81.4699 62.6834 80.8764 62.5801 80.2828 62.5284C80.0506 62.5026 79.8699 62.5543 79.7151 62.6318C79.4828 62.5284 79.2764 62.5026 79.0699 62.5543C79.4054 62.1152 79.7409 61.6245 80.0506 61.1596C80.0764 61.4437 80.2312 61.7019 80.5409 61.8827ZM67.0441 25.207C66.7086 25.7494 66.8118 26.5501 67.6118 26.7309C74.3215 28.2289 79.1473 33.1621 81.4441 39.4899C82.8118 45.1462 82.1667 51.4741 80.0506 56.6913C79.9989 56.8205 79.9473 56.9496 79.8957 57.0787C79.328 57.8794 78.7086 58.6284 78.0376 59.3258C72.3344 65.3437 63.586 68.2622 55.4312 66.8934C53.2893 66.4285 51.2505 65.7053 49.3925 64.5172C47.2505 63.1483 44.7215 61.8569 42.8893 60.0231C42.6054 59.6615 42.3215 59.2999 42.0634 58.9384C41.6247 58.2927 41.2118 57.647 40.8764 56.9754C40.7731 56.7172 40.6957 56.4589 40.6441 56.2006C39.5602 51.8615 38.786 47.0575 39.3538 42.5376C40.6183 37.8627 43.5086 33.7044 47.2764 30.5793C47.3796 30.5534 47.4828 30.5276 47.6118 30.5018C48.0764 30.4243 48.3086 30.0885 48.3602 29.7269C50.1151 28.4097 51.9989 27.3249 53.986 26.5243C58.0634 24.8196 62.7086 24.3289 67.0441 25.207ZM28.4893 76.2431C29.2118 75.4941 29.9602 74.7709 30.7344 74.0477C30.3989 74.4093 30.0893 74.7967 29.7796 75.1841C28.3086 76.7596 26.8376 78.3868 25.4699 80.0656C25.2118 80.3756 24.9796 80.6855 24.7215 80.9954C25.8312 79.3166 27.0699 77.7411 28.4893 76.2431ZM20.6699 91.7915C20.7473 91.5591 20.8505 91.3008 20.9538 91.0683C20.6183 91.9981 20.3086 92.9279 19.9989 93.8577C20.2054 93.1604 20.4118 92.463 20.6699 91.7915ZM121.315 69.1921C121.238 66.8417 121.083 64.4655 120.928 62.1668C120.438 53.7211 119.38 45.1979 115.947 37.372C118.502 42.4601 120.386 47.884 121.315 53.5145C122.167 58.6801 122.089 63.9748 121.315 69.1921Z" fill="url(#paint0_linear)"/>
</g>
<defs>
<linearGradient id="paint0_linear" x1="1.17981" y1="62.0043" x2="122.896" y2="62.0043" gradientUnits="userSpaceOnUse">
<stop stop-color="#F39616"/>
<stop offset="1" stop-color="#FDCC39"/>
</linearGradient>
<clipPath id="clip0">
<rect width="124" height="124" fill="white"/>
</clipPath>
</defs>
</svg>
