<svg width="133" height="135" viewBox="0 0 133 135" fill="none" xmlns="http://www.w3.org/2000/svg">
<g clip-path="url(#clip0)">
<path d="M66.0386 39.2041L35.9224 97.8336L39.4495 100.061L66.0386 89.4657L92.0851 99.518L94.2557 97.8879L79.8758 63.1123L66.0386 39.2041Z" fill="white"/>
<path d="M65.4688 91.2317C67.1238 91.1773 68.589 92.2369 70.1083 92.9705C73.9882 94.8994 78.0037 96.5839 82.1006 98.0509C83.213 98.4313 84.2983 98.8117 85.4107 99.1649C87.9339 100.061 90.62 101.039 93.2246 101.366C93.306 101.366 93.3874 101.366 93.4688 101.393C94.1471 101.855 95.2324 101.556 95.4223 100.822C95.7207 100.605 95.9649 100.306 96.1549 99.9527C96.8331 98.703 96.4533 97.3174 96.399 95.9861C96.3719 95.4428 96.0735 95.1168 95.6936 94.9266C95.0153 92.4271 93.8215 90.1449 92.275 87.89C92.2479 87.8356 92.2207 87.7813 92.1936 87.7541C90.0773 80.1741 86.7401 72.9745 83.0231 66.0737C82.0192 64.1991 80.9882 62.3516 79.93 60.5042C78.4107 57.4885 76.8099 54.4999 75.182 51.5386C75.0735 51.3484 74.9649 51.1582 74.8564 50.968C74.5579 50.2888 74.2595 49.5824 73.9611 48.9032C72.0618 44.5563 70.1626 40.2365 68.2634 35.8895C68.399 35.5635 68.5347 35.2103 68.6704 34.8843C69.0231 33.9606 68.2362 33.3629 67.4494 33.4172C67.0153 32.5478 65.4688 32.3848 65.1704 33.6074C65.1432 33.7432 65.1161 33.8519 65.0618 33.9878C65.0347 34.0421 65.0076 34.0964 64.9804 34.1508C61.0735 42.9262 57.1393 51.6744 53.2324 60.4498C52.3913 62.3516 51.5231 64.2534 50.682 66.1552C49.651 68.057 48.62 69.9588 47.589 71.8606C45.8797 75.0121 44.1704 78.1908 42.4611 81.3424C40.9145 84.2222 39.2324 87.0749 38.12 90.1721C38.0386 90.3623 37.9843 90.5796 37.9029 90.797C36.3021 93.7583 34.9727 96.8284 34.3486 100.17C34.213 100.931 34.6742 101.719 35.5153 101.719C43.7905 101.719 51.6316 98.6487 58.7401 94.6006C58.9843 94.4647 59.2014 94.3289 59.4456 94.193C61.399 93.3236 63.3254 92.3999 65.2246 91.3947C65.306 91.3675 65.3874 91.286 65.4688 91.2317ZM43.3564 87.3466C44.5773 84.9829 45.744 82.5921 46.8835 80.2013C47.7246 78.707 48.5657 77.2399 49.4068 75.7185C54.0463 67.3234 58.3331 58.7382 62.2673 49.9628C63.5153 47.2188 64.7091 44.4476 65.8758 41.6493C68.6432 46.2679 71.4378 50.8865 74.1781 55.5323C78.6006 65.6933 82.9417 75.9087 87.1471 86.1783C88.6936 89.9276 90.1859 93.6768 91.6781 97.4532C82.8874 95.9318 74.8021 91.7479 66.9339 87.6726C66.6897 87.5368 66.4727 87.5096 66.2556 87.5368C66.0114 87.5096 65.7673 87.5639 65.4959 87.7541C63.6781 89.1125 61.5618 89.7102 59.4456 90.4438C57.3293 91.1773 55.2401 91.938 53.1781 92.7259C49.2983 94.2202 45.4455 95.8775 41.6742 97.6434C41.3758 97.7249 41.0502 97.7793 40.7517 97.8064C39.8835 97.8608 39.5851 97.6163 39.4494 96.8827C40.1006 93.5138 41.7556 90.3895 43.3564 87.3466Z" fill="url(#paint0_linear)"/>
<path d="M132.349 58.3297C132.349 58.2753 132.349 58.1938 132.322 58.1395C132.187 57.0799 132.024 56.0475 131.861 55.0151C129.338 40.0725 122.148 26.2437 110.725 16.2186C99.7912 6.62811 85.764 1.00425 71.2485 0.107687C67.6671 -0.10966 64.0857 -0.000986589 60.5044 0.352203C60.3416 0.325035 60.1788 0.297866 59.9888 0.325035C46.1245 2.3355 32.64 7.74202 21.8687 16.8434C16.9578 21.0002 12.7795 25.9177 9.46947 31.3242C6.72916 35.0191 4.55861 39.0944 2.95784 43.4142C0.678769 49.5814 -0.297975 56.2377 0.0818701 62.7853C-0.026657 65.3935 0.000474747 68.0288 0.163265 70.637C0.0276065 75.0111 0.705901 79.4395 1.73691 83.705C3.28342 89.9537 5.80668 95.958 9.17102 101.446C9.46947 101.962 9.79505 102.451 10.1206 102.94C14.2175 109.841 19.4811 116.035 25.8028 120.98C36.1943 129.103 49.1361 133.532 62.1865 134.7C74.9656 135.841 88.0974 133.559 99.5199 127.609C111.268 121.469 120.656 111.471 126.299 99.4899C132.268 86.775 134.113 72.2399 132.349 58.3297ZM130.314 73.6798C130.396 72.6746 130.477 71.6694 130.531 70.6641C130.45 73.1365 130.26 75.5816 129.935 78.0268C130.07 76.5869 130.206 75.1469 130.314 73.6798ZM126.896 45.0171C127.656 47.3536 128.307 49.7173 128.822 52.1081C125.132 41.9199 120.873 31.8676 113.873 23.4997C110.752 19.7505 107.144 16.3816 103.21 13.5017C114.307 21.0817 122.663 32.1936 126.896 45.0171ZM3.609 61.9702C3.47334 61.8344 3.33768 61.7529 3.17489 61.6714C3.20203 61.5627 3.22916 61.454 3.25629 61.3454C3.28342 61.2639 3.28342 61.1823 3.28342 61.1008C3.88032 61.3454 4.45009 61.5899 5.04699 61.8072C4.58575 61.8887 4.09737 61.9431 3.609 61.9702ZM50.7098 130.353C53.8299 130.978 57.0044 131.358 60.2059 131.494C61.7795 131.576 61.7795 129.131 60.2059 129.049C47.4811 128.479 34.9733 123.833 25.016 115.845C19.9966 111.824 15.6555 106.988 12.1555 101.582C11.2873 100.115 10.4733 98.6205 9.71365 97.099C5.61675 88.8398 3.22916 79.7656 2.60513 70.5555C2.68652 68.4907 2.95784 66.4259 3.47334 64.4154C6.37644 64.1709 9.27954 63.7362 12.1555 63.1113C13.5121 62.8125 13.1865 60.6661 11.8299 60.7205C8.62838 60.802 5.72528 59.5522 2.84931 58.2482C3.82606 49.3097 6.64776 40.5887 11.2873 32.9272C11.8299 32.1936 12.3997 31.4601 12.9966 30.7537C17.1749 25.809 22.4113 21.5708 27.5935 17.6585C32.7485 13.7462 38.2834 10.1872 44.2795 7.63335C49.8144 5.26969 55.7563 3.82976 61.7524 3.66675C62.0509 5.75872 62.6206 7.76919 63.4617 9.72532C63.8416 10.5947 65.171 10.4589 65.578 9.72532C66.6633 7.76919 67.3416 5.75872 67.6943 3.58525C78.3842 3.8841 88.8842 7.17148 97.9733 12.8497C108.093 19.1799 115.636 28.2542 120.845 38.9586C123.776 44.99 126.055 51.293 128.252 57.6233C126.028 58.0851 123.803 58.6557 121.659 59.4707C120.411 59.9326 120.547 61.8344 121.985 61.8616C124.128 61.9159 126.245 61.9974 128.388 62.1061C128.524 68.8167 127.873 75.5545 127.14 82.2107C126.787 85.5524 126.245 88.9213 125.078 92.0729C123.966 95.1157 122.229 97.8597 120.384 100.495C113.113 110.792 104.268 120.654 92.8997 126.468C86.4423 129.783 79.2524 131.603 71.9811 131.277C71.1671 131.25 70.7873 131.875 70.8144 132.527C70.3532 132.554 69.8648 132.554 69.4036 132.554C69.3764 132.472 69.3493 132.391 69.2951 132.337C68.3183 130.598 67.6129 128.777 67.1245 126.848C66.8803 125.843 65.4152 125.653 64.8997 126.55C63.8958 128.343 63.2989 130.299 63.1361 132.337C58.9036 132.038 54.7524 131.386 50.7098 130.353ZM65.7679 130.761C66.0121 131.358 66.2834 131.956 66.5819 132.554C66.2292 132.554 65.8493 132.527 65.4966 132.527C65.5237 131.902 65.6323 131.304 65.7679 130.761ZM105.57 121.007C104.919 121.469 104.268 121.931 103.617 122.366C105 121.279 106.33 120.165 107.605 118.97C112.516 114.487 116.776 109.352 120.764 104.027C121.307 103.293 121.849 102.56 122.365 101.826C118.241 109.352 112.57 115.981 105.57 121.007Z" fill="url(#paint1_linear)"/>
</g>
<defs>
<linearGradient id="paint0_linear" x1="34.2789" y1="67.2429" x2="96.5475" y2="67.2429" gradientUnits="userSpaceOnUse">
<stop stop-color="#F39616"/>
<stop offset="1" stop-color="#FDCC39"/>
</linearGradient>
<linearGradient id="paint1_linear" x1="0.000474746" y1="67.5003" x2="132.993" y2="67.5003" gradientUnits="userSpaceOnUse">
<stop stop-color="#F39616"/>
<stop offset="1" stop-color="#FDCC39"/>
</linearGradient>
<clipPath id="clip0">
<rect width="133" height="135" fill="white"/>
</clipPath>
</defs>
</svg>
