<svg width="137" height="131" viewBox="0 0 137 131" fill="none" xmlns="http://www.w3.org/2000/svg">
<path d="M136.941 32.1244C135.952 28.8363 132.604 26.5376 129.169 27.0322C127.888 27.2068 126.811 27.8761 125.675 28.3998C124.976 28.5744 123.579 29.1564 122.939 29.04C122.269 28.8945 122.124 28.1089 121.832 27.556C121.454 26.8576 121.046 26.1884 120.61 25.5191C119.125 23.2495 117.349 21.2126 115.311 19.4376C115.428 19.2339 115.632 19.0593 115.894 18.8556C116.913 18.1282 118.281 17.6335 119.416 17.0806C124.278 14.6364 129.11 12.1922 133.972 9.777C134.496 9.51512 134.729 8.67128 134.38 8.17661C133.477 6.83809 132.371 5.90695 131.09 5.26679C131.003 5.1504 130.944 5.034 130.857 4.91761C130.333 4.19016 129.867 3.4336 128.994 3.11352C128.004 2.76434 126.694 3.02623 125.704 3.14262C124.569 3.25901 123.434 3.4045 122.298 3.60819C118.805 4.19016 115.399 5.20859 112.138 6.57621C110.857 6.86719 109.605 7.15817 108.325 7.44915C107.015 7.74013 104.977 8.64218 103.638 8.17661C102.56 7.79833 101.716 6.43071 101.017 5.61597C100.173 4.62663 99.2999 3.63729 98.3392 2.76434C96.7672 1.36763 94.904 0.290999 92.7789 0.0873122C88.9943 -0.261866 85.7047 2.26968 85.9085 5.96514C85.0351 5.73236 84.1618 5.49957 83.2884 5.26679C81.8328 4.88851 81.2215 7.12907 82.6771 7.50735C83.8707 7.82743 85.0642 8.11841 86.2578 8.43849C86.3743 8.46759 86.4616 8.46759 86.578 8.46759C87.4514 10.5045 89.0525 12.3085 90.6246 13.8217C92.4295 15.5675 94.4382 17.0515 96.6216 18.2737C96.6216 18.3028 96.5925 18.361 96.5925 18.3901C96.4178 19.2921 96.214 20.1651 96.0103 21.0671C95.1951 23.0458 94.3509 25.0535 93.5358 27.0322C93.2737 27.6724 93.0117 28.3125 92.7497 28.9527C92.7789 28.6617 92.6624 28.3707 92.4295 28.1089C92.0802 27.7597 91.7017 27.4105 91.3233 27.1195C91.8473 26.5667 91.8182 25.4318 90.8575 25.1117C79.5039 21.2126 67.4516 17.779 55.3411 19.4085C44.2786 20.9216 34.2933 26.9158 27.19 35.4125C15.1086 49.6415 12.2266 69.7193 19.0096 87.0327C22.1828 95.122 27.3938 102.397 34.468 107.489C38.9512 110.719 44.104 112.872 49.4896 114.123C49.6352 114.327 49.8099 114.472 50.101 114.56C52.4008 115.258 54.7298 115.782 57.0878 116.073C57.146 116.102 57.2043 116.102 57.2625 116.102C57.4081 116.276 57.5827 116.422 57.8447 116.509C60.4066 117.353 63.114 117.062 65.7922 116.509C75.108 116.655 84.482 115.607 92.1384 109.787C96.9709 106.121 100.93 101.174 104.162 96.0531C104.977 94.7728 105.704 93.4634 106.374 92.1249C108.819 88.2257 110.391 83.9774 111.294 79.5544C111.498 79.438 111.643 79.2344 111.731 78.9434C112.808 75.7135 112.72 72.3381 112.371 68.9627C112.371 68.7881 112.371 68.6426 112.371 68.468C112.4 59.7677 110.857 50.4563 106.258 42.9489C105.326 41.4358 104.249 40.01 103.026 38.7297C102.939 38.6133 102.852 38.526 102.764 38.4387C102.735 38.4096 102.735 38.3805 102.706 38.3805C102.269 37.9149 101.716 37.9731 101.309 38.235C102.153 36.8383 102.997 35.4125 103.812 34.0158C104.394 33.0555 104.977 32.0662 105.559 31.106C105.675 30.9023 105.821 30.6113 105.996 30.3494C106.228 30.2621 106.432 30.0875 106.578 29.8256C106.607 29.8256 106.636 29.7966 106.665 29.7966C107.16 29.7384 107.771 30.3203 108.179 30.5531C110.042 31.6879 111.964 32.7646 113.739 34.0158C114.147 34.3068 114.496 34.5977 114.816 34.9178C115.37 35.7908 115.544 36.8674 115.166 38.235C114.525 40.4756 112.72 42.4834 113.303 44.9567C113.536 45.8878 114.03 46.6735 114.846 47.2264C115.108 47.4009 115.457 47.5464 115.777 47.6628C116.563 49.5542 118.077 51.0964 120.289 50.8345C120.784 50.7763 121.308 50.5145 121.425 49.9907C122.997 42.3379 128.703 35.8781 136.155 33.5211C136.738 33.3756 137.145 32.7646 136.941 32.1244ZM76.68 102.775C76.2725 105.452 76.418 108.216 76.6218 110.922C76.5054 110.951 76.3598 111.01 76.2434 111.039C75.3118 108.216 75.632 105.423 76.68 102.775ZM78.8925 110.224C78.6014 106.819 78.5432 103.328 79.7077 100.098C81.1633 96.024 84.7731 93.4052 87.9754 90.7281C94.1762 85.5487 99.7366 79.8454 102.153 71.9598C103.317 68.2061 104.482 63.2595 108.441 61.63C109.023 71.7561 108.878 82.0569 104.278 91.281C98.5721 100.301 89.1399 106.79 78.8925 110.224ZM53.0704 82.8134C46.1127 82.1151 39.8828 79.5544 33.944 75.9463C28.5874 72.6873 22.8524 69.4283 19.1552 64.2197C19.5045 61.5427 20.0285 58.8947 20.6108 56.2177C21.2221 53.4243 21.9499 50.6017 23.2308 48.012C24.4535 45.5678 26.1129 43.3854 27.9469 41.4067C31.7606 37.2457 36.1856 33.6084 40.3777 29.8547C42.3573 28.0798 44.366 25.7519 46.8114 24.6462C48.2087 24.006 49.7808 24.0351 51.2946 24.0351C52.9248 24.0351 54.526 24.0642 56.1562 24.0933C60.9306 24.1224 65.7049 24.0642 70.4792 24.1806C70.8286 24.5589 71.1488 24.9663 71.4399 25.4027C72.7208 27.4396 72.8373 29.7965 72.1968 32.0662C70.7412 37.2166 66.258 41.5231 62.4153 45.044C55.5158 51.3583 44.5115 57.9636 45.7633 68.9045C46.2874 73.4729 49.4605 77.8667 54.1184 78.7688C55.1082 78.9725 55.7196 77.9831 55.5449 77.2557C56.6511 77.8958 57.7283 78.6233 58.689 79.4962C60.3483 81.0675 60.8723 82.988 58.427 83.8901C57.0587 84.3847 55.574 84.4138 54.1475 84.3265C54.264 83.7155 53.9146 82.9007 53.0704 82.8134ZM50.5959 74.1713C51.6148 74.986 52.7502 75.6553 53.8855 76.2954C52.5755 75.8881 51.4692 75.1315 50.5959 74.1713ZM56.4474 53.1333C60.7268 49.3796 65.21 45.9751 68.9945 41.6395C69.1692 41.4358 69.373 41.2321 69.5477 40.9993C68.9945 41.785 68.4123 42.5707 67.7718 43.2981C62.1824 49.787 54.4678 54.1808 49.6061 61.339C51.2072 58.1673 53.8273 55.432 56.4474 53.1333ZM65.0353 21.3872C65.0353 21.5327 65.0353 21.6782 65.0936 21.7946C63.7544 21.7946 62.3862 21.7946 61.047 21.7946C59.0383 21.7655 57.0587 21.7364 55.05 21.7364C58.3687 21.2417 61.6875 21.1835 65.0353 21.3872ZM39.3587 27.5851C38.2525 28.6035 37.1463 29.6511 36.0109 30.6404C33.7402 32.6773 31.4403 34.7141 29.1987 36.8092C28.6165 37.3621 28.0634 37.9149 27.5103 38.4678C30.829 34.2195 34.8173 30.4658 39.3587 27.5851ZM101.076 40.0682C101.105 40.0973 101.163 40.1555 101.192 40.1846C102.881 42.9489 104.656 45.7133 106.287 48.5067C107.568 50.7181 108.092 53.046 108.441 55.4611C108.208 55.6357 108.063 55.9267 108.092 56.3341C108.121 56.6833 108.15 57.0615 108.179 57.4107C104.482 58.8365 102.328 62.3865 100.959 65.9947C100.057 68.3516 99.3581 70.7959 98.2519 73.1237C97.2329 75.3061 96.0103 77.3721 94.5838 79.3217C89.0234 86.9163 79.6786 91.281 75.4574 99.9232C73.6524 103.619 72.9246 107.721 74.06 111.592C72.1386 112.057 70.2172 112.406 68.2667 112.668C65.4429 112.726 62.6191 112.697 59.9408 112.814C59.7661 112.668 59.5332 112.581 59.2421 112.552C49.1112 111.999 39.2714 107.78 31.9352 100.796C24.3662 93.5798 19.6501 83.5118 18.8641 73.0946C18.7476 71.6106 18.7185 70.1557 18.7767 68.7008C23.7257 74.9278 30.1885 79.8163 37.5247 82.9298C41.513 84.6175 45.676 85.7523 49.9845 86.3052C53.4197 86.7417 58.165 87.44 61.0761 85.054C64.7151 82.0569 60.9306 77.954 58.1358 76.1209C54.7298 73.9094 48.1796 71.6106 49.577 66.373C50.2174 63.9287 52.0806 61.63 53.74 59.7677C55.312 57.9927 57.0296 56.3632 58.8054 54.7919C62.3571 51.6493 66.1416 48.7104 69.2565 45.1022C72.4297 41.4649 74.846 37.1875 75.3118 32.3281C75.5738 29.5638 75.1371 26.7412 73.9726 24.2679C74.5258 24.297 75.0789 24.3261 75.632 24.3552C81.0468 24.6753 86.7236 25.6937 90.6828 29.7093C91.265 30.2912 92.0219 30.0584 92.4004 29.5638C91.7308 31.2515 91.1195 32.9683 90.741 34.7432C89.7803 36.6055 88.7323 38.6133 88.6159 40.7084C88.4703 43.0362 90.8284 44.753 92.2548 46.3243C92.7497 46.8481 93.3611 46.7608 93.7978 46.3825C94.0889 46.6444 94.4091 46.9063 94.7585 47.1391C95.2825 47.4882 96.0394 47.2264 96.3596 46.7317C97.8443 44.2583 99.329 41.7559 100.785 39.2826C100.726 39.5153 100.814 39.8063 101.076 40.0682ZM119.358 48.4776C119.445 48.2157 119.445 47.8956 119.271 47.5464C118.863 46.819 118.281 46.4116 117.64 46.0915C117.582 45.8005 117.524 45.5096 117.495 45.2186C117.291 43.1235 118.252 40.9993 118.455 38.9334C118.63 36.9256 118.077 35.4125 117.116 34.1904C116.883 33.6957 116.563 33.201 116.156 32.7355C115.311 31.8043 114.234 31.1351 113.157 30.4658C111.847 29.6511 110.828 28.6908 109.664 27.7015C109.198 27.3232 108.674 26.974 108.121 26.7994C108.15 26.7703 108.179 26.7412 108.179 26.7121C109.081 25.5191 107.073 24.3552 106.17 25.5482C105.675 26.1884 105.268 26.8867 104.918 27.6142C104.686 27.8761 104.511 28.1671 104.424 28.5162C103.55 29.5056 102.939 30.9314 102.357 31.8916C99.8821 36.0527 97.4076 40.2137 94.9331 44.3456C92.546 42.076 92.3131 38.4969 92.9535 35.2961C93.4775 34.2777 94.0307 33.2301 94.4964 32.1826C96.0394 28.749 97.2621 25.1699 98.1354 21.5036C98.4557 20.7761 98.7468 20.0487 99.0379 19.3503C99.2126 18.9429 99.1252 18.6229 98.9505 18.3901C99.3581 17.8663 99.3872 17.1097 98.6594 16.7315C94.9331 14.8401 91.0904 11.9885 88.9943 8.2639C88.0045 6.48891 87.5678 4.04466 89.6057 2.85164C91.1195 1.97869 93.1282 2.15328 94.642 2.93893C96.4469 3.87008 97.8443 5.47048 99.1543 6.98358C100.377 8.40939 101.571 10.1553 103.579 10.4463C105.093 10.679 106.782 10.2135 108.354 9.777C108.674 10.1553 109.227 10.3881 109.809 10.0971C110.799 9.60242 111.789 9.13685 112.779 8.72947C114.409 8.35119 116.039 7.97292 117.699 7.59464C121.163 6.80899 125.937 5.44138 129.431 6.89629C129.867 7.50735 130.275 8.11841 130.711 8.72947C126.199 10.9991 121.687 13.2688 117.175 15.5384C115.573 16.3532 113.39 17.0806 112.837 18.9138C112.517 19.263 112.4 19.7577 112.72 20.1942C112.895 22.231 114.584 23.5113 116.039 24.7917C118.776 27.1777 119.271 32.3281 124.016 31.3969C124.511 31.3097 124.976 31.1351 125.442 30.9314C126.694 30.6113 127.946 30.233 129.169 29.942C129.605 29.8547 129.838 29.5638 129.955 29.2437C129.984 29.2437 130.013 29.2437 130.042 29.2437C131.789 29.2437 133.419 30.233 134.292 31.717C126.956 34.5396 121.25 40.883 119.358 48.4776Z" fill="url(#paint0_linear)"/>
<path d="M68.6455 4.88853C70.596 5.09222 72.5464 5.325 74.4678 5.52869C75.9525 5.70328 75.9525 3.37542 74.4678 3.20083C72.5173 2.99715 70.5668 2.76436 68.6455 2.56067C67.1317 2.38608 67.1608 4.71394 68.6455 4.88853Z" fill="url(#paint1_linear)"/>
<path d="M52.43 6.22701C54.0894 5.49955 55.8361 5.15037 57.6119 5.12128C59.0966 5.09218 59.1257 2.76432 57.6119 2.79342C55.3703 2.82252 53.3033 3.31719 51.2364 4.21923C49.8681 4.83029 51.0617 6.83807 52.43 6.22701Z" fill="url(#paint2_linear)"/>
<path d="M38.3693 10.1844C39.5046 9.25326 40.902 8.6131 42.3576 8.43851C42.9981 8.35121 43.5221 7.97294 43.5221 7.27458C43.5221 6.72171 42.9689 6.02336 42.3576 6.11065C40.2324 6.37254 38.3693 7.18729 36.739 8.5549C35.5746 9.51514 37.2339 11.1446 38.3693 10.1844Z" fill="url(#paint3_linear)"/>
<path d="M24.6865 19.1757C26.2294 17.6044 27.9761 16.3823 29.9557 15.422C31.2949 14.7528 30.1304 12.745 28.7912 13.4142C26.6661 14.4618 24.7156 15.8585 23.0562 17.5462C21.9791 18.5937 23.6385 20.2523 24.6865 19.1757Z" fill="url(#paint4_linear)"/>
<path d="M14.2355 30.6404C15.1088 28.8363 16.2151 27.1486 17.5542 25.6646C18.544 24.5589 16.9138 22.9003 15.8949 24.006C14.4102 25.6646 13.1875 27.4687 12.1977 29.4765C11.5863 30.815 13.5659 32.008 14.2355 30.6404Z" fill="url(#paint5_linear)"/>
<path d="M5.32748 45.4804C6.57928 42.9198 7.83109 40.3592 9.08289 37.7985C9.75246 36.46 7.74375 35.267 7.07418 36.6346C5.82238 39.1952 4.57057 41.7559 3.31876 44.3165C2.6783 45.655 4.68702 46.8189 5.32748 45.4804Z" fill="url(#paint6_linear)"/>
<path d="M3.05674 58.8657C2.96941 56.9452 3.2023 55.112 3.75542 53.2788C4.1921 51.853 1.9505 51.2128 1.51382 52.6678C0.902472 54.6755 0.640466 56.7706 0.727801 58.8657C0.786025 60.3788 3.11497 60.3788 3.05674 58.8657Z" fill="url(#paint7_linear)"/>
<path d="M2.61991 68.5844C2.91103 67.1295 0.669424 66.4893 0.378306 67.9733C-0.116594 70.3594 -0.116594 72.7163 0.320083 75.1024C0.6112 76.5864 2.85281 75.9462 2.56169 74.4913C2.21235 72.5126 2.21235 70.534 2.61991 68.5844Z" fill="url(#paint8_linear)"/>
<path d="M4.94892 84.152C4.97804 82.668 2.6491 82.6389 2.61998 84.152C2.59087 86.6835 2.9111 89.1568 3.58067 91.6011C3.98824 93.056 6.22984 92.4449 5.82228 90.99C5.21093 88.7495 4.91981 86.4798 4.94892 84.152Z" fill="url(#paint9_linear)"/>
<path d="M9.75247 98.5847C8.76267 97.4498 7.1033 99.1084 8.0931 100.243C9.63602 101.96 11.1498 103.677 12.6928 105.394C13.6826 106.528 15.3419 104.87 14.3521 103.735C12.8383 102.018 11.2954 100.301 9.75247 98.5847Z" fill="url(#paint10_linear)"/>
<path d="M20.4947 110.544C19.3884 109.526 17.7582 111.155 18.8353 112.203C20.3491 113.599 21.8629 115.025 23.3767 116.422C24.483 117.44 26.1132 115.811 25.0361 114.763C23.5223 113.337 22.0085 111.941 20.4947 110.544Z" fill="url(#paint11_linear)"/>
<path d="M36.7682 122.067C34.8468 120.932 32.7799 120.059 30.6547 119.361C29.2282 118.895 28.6169 121.165 30.0433 121.601C31.9938 122.212 33.8279 123.056 35.6037 124.075C36.9137 124.831 38.0782 122.794 36.7682 122.067Z" fill="url(#paint12_linear)"/>
<path d="M53.391 127.625C50.9456 127.275 48.5584 126.693 46.2295 125.821C44.8321 125.297 44.2208 127.537 45.6182 128.061C47.9471 128.905 50.3343 129.516 52.7796 129.865C54.2352 130.069 54.8757 127.828 53.391 127.625Z" fill="url(#paint13_linear)"/>
<path d="M68.9367 128.672C66.7824 128.672 64.6282 128.672 62.4448 128.672C60.9601 128.672 60.931 131 62.4448 131C64.5991 131 66.7533 131 68.9367 131C70.4505 131 70.4505 128.672 68.9367 128.672Z" fill="url(#paint14_linear)"/>
<path d="M82.8811 126.053C80.9306 126.315 79.0092 126.548 77.0587 126.81C75.6031 126.984 75.574 129.341 77.0587 129.138C79.0092 128.876 80.9306 128.643 82.8811 128.381C84.3366 128.177 84.3658 125.85 82.8811 126.053Z" fill="url(#paint15_linear)"/>
<path d="M97.5242 119.39C95.6028 120.292 93.6523 121.165 91.7309 122.067C90.3627 122.707 91.5563 124.715 92.8954 124.075C94.8168 123.173 96.7673 122.3 98.6887 121.398C100.057 120.757 98.8633 118.75 97.5242 119.39Z" fill="url(#paint16_linear)"/>
<path d="M109.198 109.205C108.354 110.893 107.044 112.144 105.326 112.959C103.958 113.599 105.151 115.578 106.491 114.967C108.528 114.036 110.188 112.406 111.207 110.398C111.876 109.031 109.868 107.867 109.198 109.205Z" fill="url(#paint17_linear)"/>
<path d="M118.95 96.4605C118.339 98.5847 117.174 100.389 115.457 101.815C114.292 102.775 115.952 104.404 117.116 103.473C119.096 101.815 120.493 99.6031 121.192 97.1006C121.599 95.6166 119.358 95.0056 118.95 96.4605Z" fill="url(#paint18_linear)"/>
<path d="M124.511 81.2421C124.715 83.6864 124.249 85.956 123.026 88.0802C122.27 89.3896 124.278 90.5535 125.035 89.2441C126.433 86.7999 127.073 84.0355 126.84 81.213C126.695 79.7581 124.366 79.729 124.511 81.2421Z" fill="url(#paint19_linear)"/>
<path d="M125.967 65.9656C126.345 68.3517 126.374 70.7377 126.112 73.1238C125.967 74.6078 128.296 74.6078 128.441 73.1238C128.732 70.5049 128.616 67.9443 128.208 65.3545C127.975 63.8705 125.734 64.5107 125.967 65.9656Z" fill="url(#paint20_linear)"/>
<path d="M127.393 57.207C128.47 54.3554 127.83 51.271 125.879 48.9431C124.918 47.7792 123.288 49.4378 124.22 50.6017C125.646 52.3185 125.908 54.5591 125.122 56.596C124.598 57.9927 126.869 58.6037 127.393 57.207Z" fill="url(#paint21_linear)"/>
<defs>
<linearGradient id="paint0_linear" x1="23.4924" y1="58.5371" x2="128.74" y2="58.5371" gradientUnits="userSpaceOnUse">
<stop stop-color="#F39616"/>
<stop offset="1" stop-color="#FDCC39"/>
</linearGradient>
<linearGradient id="paint1_linear" x1="68.0572" y1="4.03665" x2="75.0341" y2="4.03665" gradientUnits="userSpaceOnUse">
<stop stop-color="#F39616"/>
<stop offset="1" stop-color="#FDCC39"/>
</linearGradient>
<linearGradient id="paint2_linear" x1="51.1699" y1="4.57499" x2="58.178" y2="4.57499" gradientUnits="userSpaceOnUse">
<stop stop-color="#F39616"/>
<stop offset="1" stop-color="#FDCC39"/>
</linearGradient>
<linearGradient id="paint3_linear" x1="36.8168" y1="8.28455" x2="43.0348" y2="8.28455" gradientUnits="userSpaceOnUse">
<stop stop-color="#F39616"/>
<stop offset="1" stop-color="#FDCC39"/>
</linearGradient>
<linearGradient id="paint4_linear" x1="23.2211" y1="16.3971" x2="30.0119" y2="16.3971" gradientUnits="userSpaceOnUse">
<stop stop-color="#F39616"/>
<stop offset="1" stop-color="#FDCC39"/>
</linearGradient>
<linearGradient id="paint5_linear" x1="12.4807" y1="27.4426" x2="17.4761" y2="27.4426" gradientUnits="userSpaceOnUse">
<stop stop-color="#F39616"/>
<stop offset="1" stop-color="#FDCC39"/>
</linearGradient>
<linearGradient id="paint6_linear" x1="3.59978" y1="41.0562" x2="8.82723" y2="41.0562" gradientUnits="userSpaceOnUse">
<stop stop-color="#F39616"/>
<stop offset="1" stop-color="#FDCC39"/>
</linearGradient>
<linearGradient id="paint7_linear" x1="0.910041" y1="55.9325" x2="3.60107" y2="55.9325" gradientUnits="userSpaceOnUse">
<stop stop-color="#F39616"/>
<stop offset="1" stop-color="#FDCC39"/>
</linearGradient>
<linearGradient id="paint8_linear" x1="0.176038" y1="71.5216" x2="2.47336" y2="71.5216" gradientUnits="userSpaceOnUse">
<stop stop-color="#F39616"/>
<stop offset="1" stop-color="#FDCC39"/>
</linearGradient>
<linearGradient id="paint9_linear" x1="2.83643" y1="87.7293" x2="5.65061" y2="87.7293" gradientUnits="userSpaceOnUse">
<stop stop-color="#F39616"/>
<stop offset="1" stop-color="#FDCC39"/>
</linearGradient>
<linearGradient id="paint10_linear" x1="8.26567" y1="101.984" x2="14.1969" y2="101.984" gradientUnits="userSpaceOnUse">
<stop stop-color="#F39616"/>
<stop offset="1" stop-color="#FDCC39"/>
</linearGradient>
<linearGradient id="paint11_linear" x1="18.9568" y1="113.467" x2="24.9395" y2="113.467" gradientUnits="userSpaceOnUse">
<stop stop-color="#F39616"/>
<stop offset="1" stop-color="#FDCC39"/>
</linearGradient>
<linearGradient id="paint12_linear" x1="29.7831" y1="121.76" x2="36.7958" y2="121.76" gradientUnits="userSpaceOnUse">
<stop stop-color="#F39616"/>
<stop offset="1" stop-color="#FDCC39"/>
</linearGradient>
<linearGradient id="paint13_linear" x1="45.4483" y1="127.816" x2="53.5953" y2="127.816" gradientUnits="userSpaceOnUse">
<stop stop-color="#F39616"/>
<stop offset="1" stop-color="#FDCC39"/>
</linearGradient>
<linearGradient id="paint14_linear" x1="61.9209" y1="129.836" x2="69.481" y2="129.836" gradientUnits="userSpaceOnUse">
<stop stop-color="#F39616"/>
<stop offset="1" stop-color="#FDCC39"/>
</linearGradient>
<linearGradient id="paint15_linear" x1="76.4881" y1="127.588" x2="83.4449" y2="127.588" gradientUnits="userSpaceOnUse">
<stop stop-color="#F39616"/>
<stop offset="1" stop-color="#FDCC39"/>
</linearGradient>
<linearGradient id="paint16_linear" x1="91.659" y1="121.731" x2="98.7342" y2="121.731" gradientUnits="userSpaceOnUse">
<stop stop-color="#F39616"/>
<stop offset="1" stop-color="#FDCC39"/>
</linearGradient>
<linearGradient id="paint17_linear" x1="105.145" y1="111.838" x2="110.884" y2="111.838" gradientUnits="userSpaceOnUse">
<stop stop-color="#F39616"/>
<stop offset="1" stop-color="#FDCC39"/>
</linearGradient>
<linearGradient id="paint18_linear" x1="115.472" y1="99.6817" x2="120.817" y2="99.6817" gradientUnits="userSpaceOnUse">
<stop stop-color="#F39616"/>
<stop offset="1" stop-color="#FDCC39"/>
</linearGradient>
<linearGradient id="paint19_linear" x1="123.119" y1="84.9708" x2="126.608" y2="84.9708" gradientUnits="userSpaceOnUse">
<stop stop-color="#F39616"/>
<stop offset="1" stop-color="#FDCC39"/>
</linearGradient>
<linearGradient id="paint20_linear" x1="126.116" y1="69.3795" x2="128.419" y2="69.3795" gradientUnits="userSpaceOnUse">
<stop stop-color="#F39616"/>
<stop offset="1" stop-color="#FDCC39"/>
</linearGradient>
<linearGradient id="paint21_linear" x1="124.209" y1="53.2876" x2="127.637" y2="53.2876" gradientUnits="userSpaceOnUse">
<stop stop-color="#F39616"/>
<stop offset="1" stop-color="#FDCC39"/>
</linearGradient>
</defs>
</svg>
