<svg width="123" height="124" viewBox="0 0 123 124" fill="none" xmlns="http://www.w3.org/2000/svg">
<g clip-path="url(#clip0)">
<path d="M121.761 50.2789C119.23 38.1959 112.631 27.4361 104.172 18.6485C102.038 16.4266 99.7559 14.3046 97.4239 12.2825C96.7293 11.6833 95.8114 12.2326 95.7121 12.9066C94.9183 12.9066 94.3973 14.2048 95.2408 14.8289C101.021 19.0979 104.618 25.5637 109.58 30.6815C113.723 37.5968 116.7 45.186 118.362 53.0999C119.9 60.4146 120.421 68.2285 119.305 75.6431C118.089 83.7067 113.624 90.572 109.133 97.1627C106.578 100.907 103.8 104.527 100.674 107.823C97.9449 109.795 95.1167 111.642 92.239 113.39C91.9413 113.315 91.6188 113.39 91.3459 113.664C91.1722 113.864 90.9737 114.064 90.8001 114.239C90.2791 114.538 89.7581 114.838 89.2372 115.137C86.93 116.46 84.4491 117.933 81.8691 119.107C80.7775 119.431 79.6363 119.681 78.5199 119.881C73.0125 120.929 67.2569 121.354 61.6502 121.279C50.7097 121.129 40.3894 117.484 31.1855 111.692C27.6379 109.47 24.264 106.949 21.0637 104.253C21.411 103.828 21.4606 103.129 20.8156 102.805C13.8693 99.2597 9.05644 92.6441 6.47636 85.3793C3.35051 76.6417 3.37531 67.1301 4.02033 57.993C4.34284 53.2746 4.56612 48.3815 6.25309 43.9128C7.81602 39.7437 10.4953 36.0489 13.0754 32.454C18.1115 25.5138 23.6934 18.6984 31.0615 14.1299C39.9429 8.66259 50.412 5.56696 60.7571 4.6183C61.0796 4.59333 61.3277 4.41858 61.4766 4.21886C62.2208 4.14397 62.9899 4.09404 63.7341 4.04411C64.9994 3.94425 64.9994 1.94707 63.7341 2.04693C62.8162 2.12182 61.8983 2.19671 60.9804 2.27161C61.0796 2.22168 61.1789 2.17175 61.2533 2.12182C61.6502 2.07189 62.0224 2.04693 62.4193 1.997C63.6845 1.87217 63.6845 -0.125009 62.4193 -0.000185309C49.5685 1.32295 36.6434 4.89291 25.9261 12.3823C25.8765 12.4073 25.8517 12.4323 25.8021 12.4572C22.5026 14.4045 19.4512 16.7761 16.7718 19.7469C14.5639 22.1935 12.6537 24.9646 11.0163 27.8855C8.08891 32.3042 5.73211 37.1224 3.94591 42.1403C1.73796 48.3815 0.447924 54.9972 0.199841 61.6628C0.125415 62.7113 0.0757986 63.7848 0.0509902 64.8583C-0.122668 73.5959 1.76277 82.4335 6.15385 90.0228C8.80835 95.2903 12.3063 100.158 16.4493 104.378C29.8459 118.083 49.5933 125.248 68.5966 123.8C70.2091 123.675 71.7969 123.476 73.3846 123.251C76.0639 123.201 78.6688 122.527 81.1744 121.503C84.7468 120.455 88.22 119.057 91.5195 117.309C91.7924 117.534 92.1645 117.584 92.5615 117.334C94.0252 116.361 95.4144 115.287 96.7541 114.164C100.103 111.867 103.179 109.221 105.933 106.3C106.082 106.175 106.231 106.075 106.38 105.975C106.578 105.825 106.677 105.651 106.702 105.476C111.49 100.183 115.336 93.9922 118.065 87.3515C122.803 75.7679 124.341 62.5865 121.761 50.2789ZM116.502 40.268C116.799 40.942 117.072 41.6161 117.32 42.3151C118.213 44.6618 118.933 47.0584 119.503 49.5049C118.71 46.3594 117.717 43.2638 116.502 40.268ZM13.8445 27.8855C15.8539 24.9895 18.1859 22.3682 20.7412 20.0465C18.1115 22.7427 15.6555 25.6636 13.3483 28.7343C12.7777 29.4832 12.2071 30.2321 11.6365 31.0061C12.1079 30.1073 12.5792 29.2086 13.0754 28.3348C13.3731 28.3099 13.646 28.1601 13.8445 27.8855Z" fill="url(#paint0_linear)"/>
<path d="M53.462 49.7298C53.462 49.0308 52.9162 48.7312 52.3704 48.7812C52.3704 48.7312 52.3456 48.7063 52.3456 48.6563C50.6338 42.6648 44.9031 38.8702 38.7506 39.6441C35.3519 40.0685 31.8291 41.5913 30.0181 44.637C27.959 48.1071 29.0257 52.3012 30.0925 55.8961C30.4646 57.1194 32.3749 56.5951 32.0027 55.3719C31.1841 52.6507 30.2165 49.5301 31.2089 46.7341C32.1764 44.0129 35.0294 42.515 37.7087 41.8659C42.844 40.6177 48.1282 43.239 50.0633 48.207C52.1472 53.5245 49.3934 59.1665 45.052 62.4119C40.8842 65.5076 35.4015 64.2344 31.8043 60.7393C27.2147 56.2956 27.1651 49.1057 29.0009 43.3888C29.3979 42.1655 27.4876 41.6412 27.0907 42.8645C25.1308 48.931 25.2549 56.2207 29.5467 61.2636C33.3424 65.7323 40.0655 67.8792 45.2256 64.6837C47.8057 63.086 49.9888 60.6644 51.3285 57.8933C51.3037 60.0902 51.2789 62.2871 51.2541 64.484C51.2044 68.5283 51.4277 72.7474 50.5594 76.7168C49.6911 80.6362 47.4336 83.8567 43.5883 85.2547C39.222 86.8525 34.4836 85.6042 30.3158 83.8068C29.1498 83.3075 28.1326 85.03 29.3234 85.5293C35.6496 88.2505 43.886 89.5237 49.0957 84.0065C53.9582 78.8887 53.1643 70.7252 53.2387 64.2094C53.3628 59.3662 53.4124 54.548 53.462 49.7298Z" fill="url(#paint1_linear)"/>
<path d="M58.9697 85.8788C59.7388 86.8774 61.3513 87.0771 62.3933 86.3531C63.5841 85.5293 63.6337 83.8567 62.7158 82.8082C61.8227 81.7846 60.2598 81.8345 59.4659 82.883C59.1186 83.3324 58.9449 83.9316 58.9697 84.4808C58.5728 84.9302 58.6472 85.4794 58.9697 85.8788Z" fill="url(#paint2_linear)"/>
<path d="M77.303 83.4323C80.6769 85.8289 85.0184 85.5793 88.4419 83.3824C92.1384 80.9857 94.1479 76.8666 95.2146 72.6974C96.455 67.7794 96.7279 62.3371 96.5047 57.2692C96.1573 49.5301 94.2223 39.5941 85.0432 38.1961C80.7265 37.547 77.1293 39.6441 75.0702 43.3139C74.7229 42.7147 73.5321 42.6398 73.1848 43.5136C71.349 48.0073 70.7536 52.8754 70.6791 57.7186C70.6295 62.5867 70.7784 67.6545 71.473 72.4977C72.0932 76.7168 73.7554 80.8859 77.303 83.4323ZM74.3012 59.7657C74.2763 55.6215 74.2515 51.4025 75.492 47.4081C76.6083 43.7882 78.9155 40.2682 83.0337 40.0934C86.6309 39.9437 89.8312 41.9658 91.667 45.0115C93.6269 48.2569 94.1727 52.1514 94.4208 55.8712C94.7185 60.3898 94.644 64.9833 93.875 69.452C93.2051 73.3216 92.0392 77.4158 89.211 80.2618C86.5565 82.908 82.4879 84.2062 79.0644 82.234C75.6904 80.2618 74.1275 76.4172 73.5073 72.6974C72.8375 68.753 72.6886 64.5839 72.6638 60.5396C73.2096 60.964 74.3012 60.7143 74.3012 59.7657Z" fill="url(#paint3_linear)"/>
</g>
<defs>
<linearGradient id="paint0_linear" x1="1.79564" y1="61.9969" x2="121.071" y2="61.9969" gradientUnits="userSpaceOnUse">
<stop stop-color="#F39616"/>
<stop offset="1" stop-color="#FDCC39"/>
</linearGradient>
<linearGradient id="paint1_linear" x1="26.323" y1="63.6747" x2="53.0369" y2="63.6747" gradientUnits="userSpaceOnUse">
<stop stop-color="#F39616"/>
<stop offset="1" stop-color="#FDCC39"/>
</linearGradient>
<linearGradient id="paint2_linear" x1="58.7615" y1="84.4347" x2="63.2817" y2="84.4347" gradientUnits="userSpaceOnUse">
<stop stop-color="#F39616"/>
<stop offset="1" stop-color="#FDCC39"/>
</linearGradient>
<linearGradient id="paint3_linear" x1="71.0354" y1="61.6035" x2="96.1634" y2="61.6035" gradientUnits="userSpaceOnUse">
<stop stop-color="#F39616"/>
<stop offset="1" stop-color="#FDCC39"/>
</linearGradient>
<clipPath id="clip0">
<rect width="123" height="124" fill="white"/>
</clipPath>
</defs>
</svg>
