<svg width="35" height="36" viewBox="0 0 35 36" fill="none" xmlns="http://www.w3.org/2000/svg">
<path d="M21.7562 6.92588L12.6859 6.91129C9.0022 6.90402 5.98986 9.86083 5.99165 13.5034L5.9755 22.4603C5.96758 26.0979 8.96138 29.0721 12.6501 29.0698L21.7203 29.0844C25.4041 29.0917 28.4164 26.1349 28.4146 22.4923L28.4308 13.5354C28.429 9.89287 25.4399 6.93315 21.7562 6.92588ZM26.1507 22.4875C26.1487 24.9062 24.1602 26.8551 21.7109 26.8535L12.6406 26.8389C10.1913 26.8373 8.218 24.874 8.21997 22.4553L8.23613 13.4984C8.2381 11.0797 10.2266 9.13081 12.676 9.13239L21.7462 9.14698C24.1956 9.14856 26.1688 11.1119 26.1669 13.5306L26.1507 22.4875Z" fill="url(#paint0_linear)"/>
<path d="M17.2134 12.2611C14.0115 12.2578 11.3931 14.8272 11.3897 17.9887C11.3863 21.1502 13.9886 23.7355 17.1905 23.7389C20.3923 23.7423 23.0107 21.1728 23.0141 18.0113C23.0273 14.8548 20.425 12.2694 17.2134 12.2611ZM17.2003 21.5139C15.2401 21.5067 13.6456 19.9388 13.6529 18.0033C13.6602 16.0679 15.2481 14.4935 17.2083 14.5007C19.1685 14.5079 20.763 16.0758 20.7557 18.0112C20.7582 19.9516 19.1605 21.5211 17.2003 21.5139Z" fill="url(#paint1_linear)"/>
<path d="M22.2646 13.6806C22.9315 14.0169 23.7484 13.7559 24.0891 13.0975C24.4298 12.4391 24.1654 11.6327 23.4985 11.2963C22.8316 10.9599 22.0148 11.221 21.6741 11.8794C21.3333 12.5378 21.5977 13.3442 22.2646 13.6806Z" fill="url(#paint2_linear)"/>
<defs>
<linearGradient id="paint0_linear" x1="17.1601" y1="28.9997" x2="17.1986" y2="7.07752" gradientUnits="userSpaceOnUse">
<stop stop-color="#DF993B"/>
<stop offset="0.3" stop-color="#C74B4D"/>
<stop offset="0.6" stop-color="#C21976"/>
<stop offset="1" stop-color="#5A3F91"/>
</linearGradient>
<linearGradient id="paint1_linear" x1="17.1694" y1="29.0263" x2="17.2096" y2="7.06524" gradientUnits="userSpaceOnUse">
<stop stop-color="#DF993B"/>
<stop offset="0.3" stop-color="#C74B4D"/>
<stop offset="0.6" stop-color="#C21976"/>
<stop offset="1" stop-color="#5A3F91"/>
</linearGradient>
<linearGradient id="paint2_linear" x1="22.8317" y1="28.7918" x2="22.871" y2="7.34262" gradientUnits="userSpaceOnUse">
<stop stop-color="#DF993B"/>
<stop offset="0.3" stop-color="#C74B4D"/>
<stop offset="0.6" stop-color="#C21976"/>
<stop offset="1" stop-color="#5A3F91"/>
</linearGradient>
</defs>
</svg>
