<?xml version="1.0" encoding="utf-8"?>
<!-- Generator: Adobe Illustrator 21.1.0, SVG Export Plug-In . SVG Version: 6.00 Build 0)  -->
<svg version="1.1" xmlns="http://www.w3.org/2000/svg" xmlns:xlink="http://www.w3.org/1999/xlink" x="0px" y="0px"
	 viewBox="0 0 97 33" width="97" style="enable-background:new 0 0 97 33;" xml:space="preserve">
<style type="text/css">
	.st0{fill:#200F32;}
	.st1{fill:#FFFFFF;}
	.st2{fill:url(#SVGID_1_);}
	.st3{fill:url(#SVGID_2_);}
	.st4{fill:url(#SVGID_3_);}
</style>
<g id="Слой_1">
	<path class="st0" d="M40.4,8.8c-2.4,3.7-4.9,8.5-6.2,12.1c-0.7,2.1-0.4,2.6,0.1,3.3c0.4,0.6,1,1.2,1.6,1.5c0.7,0.4,1.5,0.4,2.7,0.2
		c1.8-0.3,4.2-1.5,5.6-3.1c1.4-1.5,1.4-3.5,0.7-4.5c-0.4-0.6-0.9-1.1-1.5-1.4c2.4-1.1,4.1-2.7,5-3.9c1.1-1.4,1.7-3.3,1.1-5.5
		c-0.6-2.2-2.2-2.8-3.8-2.7c-2.2,0.1-5.1,1.7-7.3,1.9c-0.4,0-0.5,0.2-0.3,0.6C38.5,8,39.1,8.8,40.4,8.8z M38.9,16.1
		c0.9-1.7,1.9-3.2,2.5-4.4c0.8-1.5,1-2.5,1-3.2c2.2-0.7,5.4-2.2,6.1-0.5C49.3,10.2,45.3,14.6,38.9,16.1z M41.4,17.8
		c2.9,0.2,2.9,1.6,1.7,3.2c-1.4,1.7-4.2,3.1-6.2,3.3c-1,0.1-1.4-0.3-1-1.4c0.5-1.6,1.3-3.4,2.2-5.1c0.5,0.2,1.1,0.3,2,0.2
		C40.5,17.9,41,17.9,41.4,17.8z"/>
	<path class="st0" d="M50.2,20c2.3,1.9,4.4,1,6-1c1.4-1.7,1.6-3.7,1-4.5c-0.5-0.7-1.1-1.2-1.9-1.7c-1.6-1-4.9,0.8-7,5
		s-0.7,8.3,3.4,8.3c2.5,0,5-1.5,6.3-3.5c0.6-0.9,0.7-1.8,0.5-2c-0.1-0.3-0.4-0.3-0.5,0c-1.4,2.2-3.7,4.8-6.4,4.7
		C49.9,25.1,49.2,23,50.2,20z M50.5,19.3c0.1-0.2,0.2-0.4,0.3-0.6c1.5-3.1,4.2-5.1,4.9-4.5c0.5,0.4-0.3,2.1-1.3,3.4
		C53.4,18.9,52.1,20.3,50.5,19.3z"/>
	<path class="st0" d="M66.4,8.4c-3,4.6-6.5,11.7-7.2,14.4c-0.4,1.6,0,2.6,0.4,3c0.2,0.2,0.4,0.2,0.5-0.1c2.5-6,5.3-10.6,7.2-14.2
		c0.9-1.6,1.1-2.7,1.1-3.5c1.9-0.3,3.9-0.7,5.5-0.5c0.4,0,0.5-0.2,0.4-0.5c-0.5-1.3-1.7-1.6-3.1-1.7C69.4,5.3,64,6.5,61.2,6.3
		c-0.3,0-0.5,0.1-0.4,0.4c0.4,1.2,1.7,1.9,3.7,1.9C65.1,8.6,65.7,8.5,66.4,8.4z"/>
	<path class="st0" d="M71,15.2c0.8-2.1,1.1-4,0.1-3.9c-1.2,0-4,3.9-2.2,5.1c-1.2,1.7-3.4,4.8-4.1,6.3c-0.9,1.7-0.9,3.2,0.1,4.2
		c0.3,0.3,0.5,0.1,0.5-0.2c0.6-3,3.7-7.6,4.9-9.9c1,0,2.4-0.3,3.8-1.2c-1.3,1.5-3.2,3.8-3.9,6c-0.8,2.5,0.1,4.6,2.5,4.7
		c1.7,0.1,3.6-1.3,4.3-3.2c0.4-0.9,0.3-1.7,0.2-2c-0.1-0.3-0.3-0.2-0.5,0c-1,2.4-2.6,4.4-3.8,4.3c-0.9,0-1.3-1.3-0.8-3
		c0.5-1.7,2.1-3.8,3.5-5.4c0.9-1.1,0.2-2.5-0.5-3.2c-0.2-0.3-0.5-0.2-0.9,0.1C73.2,14.6,72.1,15.1,71,15.2z"/>
	<path class="st0" d="M83.8,10.5c-0.4-0.9-1.4-1.3-1.9-0.7c-0.5,0.6-0.7,1.5-0.2,2.4c0.5,0.9,1.4,1,1.8,0.5
		C84,12.3,84.2,11.4,83.8,10.5z M78.6,26.1c1.8,0,3.8-1.4,4.8-3.4c0.4-0.8,0.5-1.5,0.2-2c-0.1-0.3-0.4-0.3-0.5,0
		c-1,2.3-2.7,4.4-4.2,4.5c-1,0.1-1.1-1.2-0.3-3.1c0.7-1.6,2-3.9,2.7-5.3c0.8-1.6,0.5-3.1,0-3.6c-0.3-0.3-0.5-0.2-0.8,0.2
		c-1.2,1.7-3.3,5.6-4.1,8C75.5,24,76.1,26.1,78.6,26.1z"/>
	<path class="st0" d="M89.3,25.5c1.2-0.8,2.4-2.3,3.4-4.5c1.2-2.7,1.9-5.6,0.4-7.3c-1.4-1.5-3.3-0.6-4.7,0.7c0-0.6,0-1.1-0.2-1.5
		c-0.2-0.4-0.5-0.5-0.8,0c-2,2.8-7.4,13.2-8.4,16.3c-0.6,2-0.5,2.9,0,3.6c0.2,0.3,0.4,0.2,0.5-0.1c1.5-3.6,3.2-7,4.7-9.8
		c0.1,0.8,0.4,1.6,1.1,2.2c1.1,1.1,2.5,1.3,4.5,1.2c2.3-0.2,4.5-1.2,5.7-3.5c0.5-1,0.5-1.9,0.4-2.2c-0.1-0.3-0.4-0.5-0.6,0
		C94.4,22.9,92.4,25.3,89.3,25.5z M86,19.6c0.4-0.7,0.7-1.3,1.1-1.9c1.5-2.5,3.5-4.2,4.3-3.8c0.8,0.4,0.5,3.1-0.8,5.7
		c-1.5,3.2-3.6,5.5-4.6,4.7C85,23.7,85.2,21.7,86,19.6z"/>
</g>
<g id="Слой_2">
	<path class="st1" d="M12.6-0.1C6-0.1,0.7,5.2,0.7,11.7c0,6.6,9.3,21.4,11.9,21.4c2.5,0,11.9-14.8,11.9-21.4
		C24.4,5.2,19.1-0.1,12.6-0.1z"/>
	<path class="st0" d="M12.6,0.5C6.3,0.5,1.2,5.6,1.2,11.8s8.9,20.5,11.4,20.5c2.4,0,11.4-14.2,11.4-20.5C23.9,5.6,18.9,0.5,12.6,0.5
		z"/>
	<path class="st1" d="M21.4,11.3c0,4.9-5.8,13.4-8.9,13.4c-2.8,0-8.9-8.6-8.9-13.4c0-4.9,4-8.8,8.9-8.8C17.5,2.5,21.4,6.4,21.4,11.3
		z"/>
	
		<linearGradient id="SVGID_1_" gradientUnits="userSpaceOnUse" x1="3.4555" y1="23.8215" x2="21.6909" y2="23.8215" gradientTransform="matrix(1 0 0 -1 0 34)">
		<stop  offset="0" style="stop-color:#FDC635"/>
		<stop  offset="1" style="stop-color:#FFA901"/>
	</linearGradient>
	<path class="st2" d="M6.3,17.6c0.3,0.3,0.8,0.3,1.1-0.1c0.1-0.1,0.2-0.2,0.3-0.4C7.8,17,8,16.9,8.2,16.9h0h0c0.2,0,0.4,0.1,0.5,0.3
		c0,0,0.1,0.1,0.1,0.1c0,0,0.1,0.1,0.1,0.1c0.1,0.1,0.2,0.2,0.3,0.3c0.4,0.3,0.8,0,1-0.3c0.5-0.5,1-1.1,1.5-1.7
		c0.2-0.2,0.3-0.4,0.5-0.5c0,0,0.1-0.1,0.2-0.2c0.4-0.5,1.3-1.5,1.6-1.6c0.3-0.1,0.7,0,1,0.3c0.3,0.3,1.9,2.2,3.1,3.5
		c0.3,0.3,0.8,0.4,1.1,0c1.4-1.6,2.3-3.7,2.3-6c0-4.9-4-8.9-8.9-8.9c-4.9,0-8.9,4-8.9,8.9C3.7,13.8,4.7,16,6.3,17.6z"/>
	
		<linearGradient id="SVGID_2_" gradientUnits="userSpaceOnUse" x1="20.96" y1="40.1317" x2="13.3241" y2="20.8498" gradientTransform="matrix(1 0 0 -1 0 34)">
		<stop  offset="0" style="stop-color:#3A1B5A"/>
		<stop  offset="0.3726" style="stop-color:#200F32"/>
	</linearGradient>
	<path class="st3" d="M12.6,24.9c3-0.4,8.9-7.7,9.9-17.1c0-0.6-0.1-1.2-0.1-1.8c1,1.7,1.6,3.7,1.6,5.8c0,6.3-8.9,20.5-11.4,20.5
		c-2,0-9-10.5-10.9-17.4C4.5,21.3,9.1,25.1,12.6,24.9z"/>
	
		<linearGradient id="SVGID_3_" gradientUnits="userSpaceOnUse" x1="13.5434" y1="11.342" x2="-2.6622" y2="34.9087" gradientTransform="matrix(1 0 0 -1 0 34)">
		<stop  offset="0" style="stop-color:#3A1B5A"/>
		<stop  offset="0.6775" style="stop-color:#200F32"/>
	</linearGradient>
	<path class="st4" d="M12.6,24.8C9.4,24.6,2.8,15,2.7,7.8c0-0.6,0.1-1.2,0.1-1.8c-1,1.7-1.6,3.7-1.6,5.9c0,6.3,8.9,20.5,11.4,20.5
		c1.5,0,5.5-5.6,8.4-11.3C22,19,18.2,25.1,12.6,24.8z"/>
</g>
</svg>
