<svg width="31" height="44" viewBox="0 0 31 44" fill="none" xmlns="http://www.w3.org/2000/svg">
<path d="M15.5 0C6.94118 0 0 6.93647 0 15.4895C0 24.0425 12.1824 43.4059 15.5 43.4C18.7118 43.3941 31 24.0425 31 15.4895C30.9941 6.93647 24.0588 0 15.5 0Z" fill="white"/>
<path d="M15.5003 0.760986C7.29935 0.760986 0.648438 7.4119 0.648438 15.6128C0.648438 23.8137 12.3213 42.3799 15.5003 42.3743C18.5777 42.3686 30.3521 23.8137 30.3521 15.6128C30.3464 7.4119 23.7012 0.760986 15.5003 0.760986Z" fill="#200F32"/>
<path d="M27.0633 14.9247C27.0633 21.2654 19.4519 32.4762 15.4998 32.4762C11.8074 32.4762 3.93628 21.2654 3.93628 14.9247C3.93628 8.58396 9.11 3.44446 15.4998 3.44446C21.8895 3.44446 27.0633 8.58396 27.0633 14.9247Z" fill="white"/>
<path fill-rule="evenodd" clip-rule="evenodd" d="M7.2896 23.1509C7.69477 23.5594 8.36387 23.5201 8.73551 23.0809C8.87642 22.9231 9.01169 22.7596 9.14697 22.5962C9.3386 22.3764 9.57533 22.2636 9.81206 22.2467H9.82897H9.84588C10.0882 22.258 10.325 22.3764 10.511 22.5962C10.5504 22.6441 10.5913 22.692 10.6322 22.7399C10.673 22.7878 10.7139 22.8357 10.7533 22.8836C10.883 23.0358 11.0351 23.1767 11.1986 23.2951C11.7002 23.6558 12.2075 23.3515 12.5626 22.9569C13.2035 22.2481 13.8316 21.5234 14.4589 20.7995C14.6647 20.562 14.8704 20.3247 15.0764 20.088C15.1315 20.0255 15.2034 19.9429 15.2875 19.8462C15.8483 19.2009 16.9563 17.9263 17.3141 17.794C17.765 17.6306 18.2384 17.8109 18.5597 18.1435C18.9647 18.5634 21.071 20.9717 22.6083 22.7293C22.9942 23.1705 23.6715 23.2103 24.0654 22.7763C25.9282 20.7235 27.0633 17.9983 27.0633 15.008C27.0633 8.62161 21.8861 3.44446 15.4998 3.44446C9.11343 3.44446 3.93628 8.62161 3.93628 15.008C3.93628 18.184 5.21674 21.061 7.2896 23.1509Z" fill="url(#paint0_linear)"/>
<path d="M15.4998 32.7222C19.4646 32.2302 27.0633 22.6349 28.407 10.3653C28.3958 9.55361 28.3394 8.75325 28.2154 7.97543C29.5512 10.2074 30.3234 12.8171 30.3234 15.6071C30.3234 23.808 18.6505 42.3742 15.4716 42.3685C12.8281 42.3629 3.77049 28.6722 1.26794 19.6145C4.90904 27.9282 10.94 32.9646 15.4998 32.7222Z" fill="url(#paint1_linear)"/>
<path d="M15.5003 32.4762C11.3178 32.2302 2.70667 19.6825 2.5648 10.3653C2.58735 9.55361 2.63244 8.75325 2.75644 7.97543C1.42062 10.2131 0.648438 12.8227 0.648438 15.6127C0.648438 23.8136 12.3213 42.3798 15.5003 42.3742C17.4223 42.3685 22.7373 35.1258 26.4573 27.6914C27.8495 24.9014 22.8685 32.9096 15.5003 32.4762Z" fill="url(#paint2_linear)"/>
<defs>
<linearGradient id="paint0_linear" x1="3.60499" y1="15.1851" x2="27.4029" y2="15.1851" gradientUnits="userSpaceOnUse">
<stop stop-color="#FDC635"/>
<stop offset="1" stop-color="#FFA901"/>
</linearGradient>
<linearGradient id="paint1_linear" x1="26.4505" y1="-7.83467" x2="16.4854" y2="17.3289" gradientUnits="userSpaceOnUse">
<stop stop-color="#3A1B5A"/>
<stop offset="0.3726" stop-color="#200F32"/>
</linearGradient>
<linearGradient id="paint2_linear" x1="16.7545" y1="29.7472" x2="-4.39437" y2="-1.00829" gradientUnits="userSpaceOnUse">
<stop stop-color="#3A1B5A"/>
<stop offset="0.6775" stop-color="#200F32"/>
</linearGradient>
</defs>
</svg>
