<svg width="97" height="33" viewBox="0 0 97 33" fill="none" xmlns="http://www.w3.org/2000/svg">
<path d="M40.422 8.81814C38.0037 12.4938 35.5532 17.2854 34.2635 20.961C33.5219 23.0614 33.8443 23.5865 34.328 24.3085C34.7471 24.9321 35.3275 25.49 35.9724 25.8182C36.6818 26.1792 37.4556 26.212 38.6809 25.9823C40.4865 25.6541 42.9048 24.5055 44.3235 22.9302C45.71 21.3877 45.7422 19.4514 45.0651 18.434C44.646 17.8105 44.1301 17.351 43.5174 17.0556C45.9035 16.0054 47.6124 14.3645 48.5474 13.1502C49.6437 11.7062 50.2564 9.86834 49.676 7.66949C49.0956 5.43782 47.5156 4.91272 45.8712 5.01117C43.7109 5.14245 40.8089 6.75056 38.5519 6.94748C38.165 6.98029 38.0682 7.14439 38.2295 7.50539C38.4552 8.03049 39.1323 8.7525 40.422 8.81814ZM38.9388 16.1367C39.8739 14.4629 40.8089 12.9205 41.4538 11.7062C42.2599 10.1965 42.4856 9.21196 42.4211 8.48995C44.646 7.76794 47.8381 6.25828 48.483 7.96485C49.2891 10.1965 45.3231 14.627 38.9388 16.1367ZM41.4216 17.7776C44.3558 17.9417 44.3558 19.4186 43.1627 20.9282C41.7763 22.6676 39.0033 24.0132 36.9397 24.2757C35.9079 24.407 35.5532 24.0132 35.9079 22.8645C36.3916 21.2236 37.1977 19.4842 38.0682 17.7776C38.5196 18.0074 39.1645 18.1058 40.0673 18.0074C40.5188 17.9417 40.9702 17.8761 41.4216 17.7776Z" fill="#200F32"/>
<path d="M50.1863 19.9765C52.4434 21.8471 54.6037 20.9939 56.1837 19.0247C57.5379 17.351 57.7959 15.3491 57.2155 14.5614C56.6996 13.8394 56.1192 13.3471 55.3131 12.8548C53.7009 11.9031 50.412 13.6097 48.3162 17.8433C46.2204 22.0769 47.6391 26.1792 51.734 26.1136C54.2168 26.0808 56.6996 24.5711 58.0538 22.5692C58.6342 21.7159 58.7309 20.797 58.6019 20.5344C58.473 20.239 58.215 20.239 58.0538 20.5016C56.6673 22.6676 54.3135 25.2931 51.6373 25.1618C49.9284 25.0634 49.1545 22.9958 50.1863 19.9765ZM50.4765 19.2545C50.541 19.0904 50.6377 18.8935 50.7345 18.6966C52.2499 15.5788 54.9262 13.6097 55.6033 14.1676C56.0547 14.5286 55.3453 16.2352 54.3135 17.6135C53.3785 18.8606 52.0565 20.2719 50.4765 19.2545Z" fill="#200F32"/>
<path d="M66.4473 8.35868C63.4486 12.9861 59.9663 20.1078 59.2247 22.7989C58.8055 24.3742 59.1924 25.3587 59.6438 25.7854C59.8695 26.0151 60.0307 26.0151 60.1597 25.6869C62.6747 19.6811 65.4154 15.0865 67.3501 11.5093C68.2207 9.90115 68.4464 8.81814 68.4141 8.03049C70.2843 7.70231 72.3156 7.37412 73.8955 7.53821C74.3147 7.57103 74.3792 7.30848 74.2825 7.04593C73.7988 5.766 72.5736 5.405 71.2193 5.37218C69.3814 5.30654 64.029 6.52083 61.1593 6.2911C60.8368 6.25828 60.7079 6.42238 60.8046 6.71774C61.1593 7.93203 62.5458 8.65405 64.4804 8.58841C65.0608 8.55559 65.7056 8.48995 66.4473 8.35868Z" fill="#200F32"/>
<path d="M71.0236 15.2178C71.8297 13.1502 72.0876 11.2467 71.0881 11.2795C69.8951 11.3124 67.0899 15.185 68.9277 16.3992C67.7347 18.1386 65.5744 21.2236 64.8328 22.6676C63.9622 24.3414 63.9622 25.851 64.8973 26.8356C65.1875 27.131 65.3809 26.9669 65.4454 26.6715C66.0581 23.685 69.1535 19.0247 70.3787 16.7274C71.346 16.7274 72.7325 16.4321 74.1512 15.4803C72.8615 16.99 70.9913 19.3201 70.282 21.4861C69.4759 23.9475 70.411 26.1136 72.7325 26.212C74.4414 26.2777 76.3116 24.8993 77.0532 22.9958C77.4079 22.1097 77.3756 21.322 77.2144 20.961C77.0854 20.6985 76.892 20.7313 76.763 20.9939C75.7312 23.3568 74.1835 25.3916 72.926 25.3259C71.9909 25.2931 71.604 24.0132 72.1199 22.3066C72.6358 20.6 74.2157 18.5325 75.6667 16.8587C76.6018 15.7757 75.8279 14.3317 75.2153 13.6425C74.9896 13.3799 74.7316 13.4456 74.3447 13.7081C73.1517 14.5614 72.0554 15.0865 71.0236 15.2178Z" fill="#200F32"/>
<path d="M83.8269 10.5247C83.4077 9.63861 82.4726 9.24478 81.9567 9.8027C81.4408 10.3606 81.2796 11.3452 81.7955 12.2313C82.2792 13.0846 83.182 13.183 83.6012 12.7236C84.0203 12.2641 84.246 11.378 83.8269 10.5247ZM78.5711 26.0808C80.3768 26.0808 82.4081 24.7024 83.3755 22.6676C83.7624 21.8471 83.8591 21.158 83.6012 20.6329C83.4722 20.3703 83.2465 20.3375 83.0853 20.6329C82.118 22.8973 80.3446 25.0634 78.8936 25.129C77.8618 25.1947 77.7973 23.9147 78.5711 22.0112C79.2483 20.3703 80.6025 18.1386 81.2796 16.6946C82.0535 15.0537 81.7955 13.6425 81.3119 13.1174C81.0539 12.822 80.8282 12.9205 80.538 13.3143C79.345 15.0209 77.2169 18.8935 76.4108 21.2892C75.508 23.9804 76.1206 26.0808 78.5711 26.0808Z" fill="#200F32"/>
<path d="M89.2569 25.4572C90.4822 24.7024 91.6752 23.1271 92.6425 20.961C93.8355 18.2699 94.5449 15.3491 92.9972 13.6753C91.6107 12.1985 89.7083 13.1174 88.2896 14.3645C88.3218 13.8066 88.2574 13.3143 88.0961 12.8877C87.9349 12.4938 87.6447 12.4282 87.3223 12.8548C85.2909 15.6116 79.874 26.0151 78.9067 29.1985C78.2941 31.2005 78.4553 32.1194 78.9389 32.8086C79.1324 33.1039 79.3581 33.0383 79.4871 32.7429C81.0348 29.1001 82.6792 25.7526 84.1947 22.9302C84.2914 23.7506 84.6138 24.5055 85.2909 25.129C86.4195 26.1792 87.7737 26.4746 89.8373 26.3433C92.1589 26.1792 94.3514 25.0962 95.5767 22.8317C96.1248 21.8143 96.0603 20.961 95.9959 20.6657C95.9314 20.3375 95.5767 20.2062 95.3832 20.6657C94.3514 22.8973 92.4168 25.2603 89.2569 25.4572ZM86.0003 19.6483C86.3872 18.9591 86.7419 18.3684 87.0966 17.7776C88.612 15.2506 90.6112 13.6097 91.385 14.0035C92.1911 14.3973 91.8364 17.1213 90.5789 19.7468C89.0635 22.8973 86.9676 25.2931 85.9358 24.4398C85.033 23.685 85.1942 21.7159 86.0003 19.6483Z" fill="#200F32"/>
<path d="M12.0662 2.89917C7.63034 2.89917 4.03809 6.53219 4.03809 11.0184C4.03809 14.3762 6.061 17.2661 8.93661 18.4955V16.0184L10.9595 17.945L10.0977 18.8991C10.7327 19.0643 11.3859 19.1468 12.0662 19.1468C13.6537 19.1468 15.1323 18.6789 16.3751 17.8808V11.6239L19.4594 14.5597C19.922 13.5322 20.0944 12.2294 20.0944 11.0276C20.0944 6.53219 16.5021 2.89917 12.0662 2.89917Z" fill="url(#paint0_linear)"/>
<path d="M8.93662 16.2386C8.93662 16.2386 8.93662 17.9909 8.93662 18.6606C11.3677 16.367 13.8896 14.0001 16.3751 11.6514C16.3751 11.6881 16.3751 11.8533 16.3751 12.0092C16.3751 16.5964 16.366 26.2936 16.366 26.2936C16.366 26.2936 13.6446 29.3486 12.4291 30.7248C12.3474 30.8165 12.2567 30.8899 12.1388 31C12.0481 30.9266 11.9483 30.8624 11.8667 30.7798C8.9094 27.6422 6.13357 24.3578 3.78409 20.7248C2.46875 18.7156 1.29854 16.6331 0.618191 14.3028C-0.0349456 12.0643 0.228124 9.87162 1.03547 7.74319C3.37588 1.56889 10.0615 -1.50449 16.2028 0.724861C20.7566 2.38541 23.986 7.03677 23.9497 11.9175C23.9316 13.8624 23.2149 15.6056 22.3531 17.367C22.1989 17.2294 22.0901 17.1377 21.9903 17.0367C21.2283 16.2753 19.3687 14.4679 19.3687 14.4679C19.3687 14.4679 19.4957 14.1835 19.5501 14.0184C20.6387 10.8441 20.1034 7.99089 17.8447 5.52301C16.5021 4.05513 14.7967 3.27531 12.8192 3.09183C10.6965 2.89917 8.80962 3.48632 7.13142 4.77072C3.56638 7.51383 3.05838 12.9634 6.03378 16.4037C6.75949 17.2202 7.2947 17.5597 7.2947 17.5597C7.2947 17.5597 8.18369 16.7707 8.49212 16.4771C8.5919 16.3762 8.94569 16.0367 8.94569 16.0367L8.93662 16.2386Z" fill="#200F32"/>
<defs>
<linearGradient id="paint0_linear" x1="18.997" y1="2.89917" x2="3.047" y2="5.16243" gradientUnits="userSpaceOnUse">
<stop stop-color="#FDC635"/>
<stop offset="1" stop-color="#FFA901"/>
</linearGradient>
</defs>
</svg>
