<svg width="1231" height="278" viewBox="0 0 1231 278" fill="none" xmlns="http://www.w3.org/2000/svg">
<g opacity="0.1" filter="url(#filter0_f)">
<path d="M1207.5 217.55C1170 230.5 1150.3 241.55 1053.5 217.55C932.5 187.55 880.5 123.049 800.5 99.0497C739.07 80.621 638 63.183 521.5 117.55C409 170.05 346 236.05 215 236.05" stroke="#1D0151" stroke-width="3" stroke-linecap="round" stroke-dasharray="20 10"/>
</g>
<path d="M2 276C348.5 22 530 145.6 592 170C669.5 200.5 716 276 835 276C901.093 276 976.74 221.75 1029.5 164.5C1076.5 113.5 1129 43.5 1229.5 43.5" stroke="#1D0151" stroke-width="3" stroke-linecap="round" stroke-dasharray="20 10"/>
<g filter="url(#filter1_d)">
<path d="M654 142.524C654 157.172 627.5 184 627.5 184C627.5 184 601 157.172 601 142.524C601 127.875 612.864 116 627.5 116C642.136 116 654 127.875 654 142.524Z" fill="url(#paint0_linear)"/>
</g>
<circle cx="628" cy="142" r="18" fill="white"/>
<path d="M635.045 150.398V135.571H635.556V133H619.444V135.571H619.955V150.398H619V152H636V150.398H635.045ZM624.528 149.405H621.849V146.974H624.528V149.405ZM624.528 145.884H621.849V143.453H624.528V145.884ZM624.528 142.363H621.849V139.931H624.528V142.363ZM624.528 138.841H621.849V136.41H624.528V138.841ZM628.84 150.398H626.16V146.974H628.84V150.398ZM628.84 145.884H626.16V143.453H628.84V145.884ZM628.84 142.363H626.16V139.931H628.84V142.363ZM628.84 138.841H626.16V136.41H628.84V138.841ZM633.151 149.405H630.472V146.974H633.151V149.405ZM633.151 145.884H630.472V143.453H633.151V145.884ZM633.151 142.363H630.472V139.931H633.151V142.363ZM633.151 138.841H630.472V136.41H633.151V138.841Z" fill="#200F32"/>
<path d="M622.573 133L623.5 132.317L624.427 133L624.25 131.553L625 130.528L623.964 130.317L623.5 129L623.036 130.317L622 130.528L622.75 131.553L622.573 133Z" fill="#200F32"/>
<path d="M626.573 133L627.5 132.317L628.427 133L628.25 131.553L629 130.528L627.964 130.317L627.5 129L627.036 130.317L626 130.528L626.75 131.553L626.573 133Z" fill="#200F32"/>
<path d="M630.573 133L631.5 132.317L632.427 133L632.25 131.553L633 130.528L631.964 130.317L631.5 129L631.036 130.317L630 130.528L630.75 131.553L630.573 133Z" fill="#200F32"/>
<path d="M820 160.984C820 178.649 788 211 788 211C788 211 756 178.649 756 160.984C756 143.32 770.327 129 788 129C805.673 129 820 143.32 820 160.984Z" fill="url(#paint1_linear)"/>
<circle cx="788.5" cy="160.5" r="21.5" fill="white"/>
<g clip-path="url(#clip0)">
<path d="M784.238 162.225C784.128 162.235 784.017 162.24 783.907 162.24C783.605 162.24 783.311 162.196 783.023 162.129L776.363 168.789C776.036 169.116 776.036 169.646 776.363 169.972L778.087 171.697C778.413 172.023 778.943 172.023 779.269 171.697L787.274 163.694L785.79 162.093L784.238 162.225Z" fill="#200F32"/>
<path d="M801.765 151.555C801.453 151.243 800.947 151.243 800.634 151.555L796.318 155.871C795.91 156.279 795.248 156.279 794.84 155.871C794.433 155.464 794.433 154.803 794.84 154.395L799.135 150.101C799.459 149.777 799.459 149.25 799.135 148.925C798.809 148.6 798.282 148.6 797.958 148.925L793.665 153.218C793.257 153.626 792.596 153.626 792.187 153.218C791.78 152.81 791.78 152.149 792.187 151.742L796.502 147.426C796.816 147.113 796.816 146.607 796.502 146.293C796.19 145.98 795.683 145.98 795.37 146.293L790.515 151.149C789.347 152.317 788.979 153.956 789.356 155.448L792.611 158.703C794.103 159.08 795.743 158.711 796.909 157.544L801.765 152.688C802.079 152.376 802.079 151.868 801.765 151.555Z" fill="#200F32"/>
<path d="M778.181 146.732C778.015 146.566 777.79 146.474 777.559 146.474C777.51 146.474 777.46 146.479 777.412 146.487C777.131 146.534 776.89 146.715 776.766 146.971C775.344 149.911 775.938 153.428 778.247 155.737L782.377 159.867C782.784 160.275 783.335 160.5 783.907 160.5C783.968 160.5 784.029 160.498 784.09 160.493L786.488 160.288L796.945 171.568C797.107 171.744 797.334 171.846 797.574 171.85C797.579 171.85 797.584 171.85 797.589 171.85C797.823 171.85 798.048 171.758 798.214 171.593L800.005 169.801C800.17 169.636 800.263 169.412 800.263 169.179C800.263 168.945 800.17 168.721 800.006 168.556L778.181 146.732Z" fill="#200F32"/>
</g>
<path d="M787.5 232C790.538 232 793 229.314 793 226C793 222.686 790.538 220 787.5 220C784.462 220 782 222.686 782 226C782 229.314 784.462 232 787.5 232Z" fill="#200F32"/>
<path d="M799.385 239.551C793.632 239.441 788.297 233.795 788.297 233.795C787.67 233.13 786.728 232.798 785.892 233.13C781.603 234.348 777.419 242.43 776.268 244.865C775.641 246.194 776.164 247.744 777.314 248.408C777.628 248.63 778.047 248.74 778.465 248.74C779.406 248.74 780.243 248.187 780.662 247.301C781.394 245.64 782.335 243.98 783.277 242.43V252.836L777.419 265.125C776.791 266.454 777.314 268.004 778.465 268.668C778.779 268.889 779.197 269 779.616 269C780.557 269 781.394 268.446 781.812 267.561L788.716 253.169L793.632 257.043V265.568C793.632 267.007 794.783 268.225 796.142 268.225C797.502 268.225 798.653 267.007 798.653 265.568V255.715C798.653 254.94 798.339 254.165 797.711 253.611L792.586 249.515V243.205C794.678 244.201 796.979 244.976 799.49 244.976C800.849 244.976 801.895 243.869 802 242.43C801.791 240.769 800.745 239.662 799.385 239.551Z" fill="#200F32"/>
<path d="M512 75.9843C512 93.6487 480 126 480 126C480 126 448 93.6487 448 75.9843C448 58.3199 462.327 44 480 44C497.673 44 512 58.3199 512 75.9843Z" fill="url(#paint2_linear)"/>
<circle cx="480.5" cy="75.5" r="21.5" fill="white"/>
<path d="M492.769 85.0292C493.135 86.1251 493.066 86.9698 492.564 87.5637C491.97 88.0661 491.125 88.1344 490.029 87.7697C488.933 87.4043 487.951 86.7879 487.084 85.9203L484.344 83.1801L472.957 85.9029C472.774 85.9601 472.603 85.9145 472.443 85.7661L470.251 83.574C470.126 83.4483 470.074 83.2942 470.097 83.1116C470.131 82.9287 470.229 82.7919 470.388 82.7005L479.087 77.9225L474.652 73.487L471.33 74.3944C471.307 74.4059 471.262 74.4117 471.193 74.4117C471.033 74.4117 470.902 74.3604 470.799 74.2575L469.156 72.5965C469.041 72.4598 468.99 72.317 469.002 72.1687C469.024 71.9861 469.098 71.8547 469.224 71.7747L473.539 68.5382L476.775 64.2229C476.878 64.0971 477.015 64.0232 477.187 64H477.221C477.381 64 477.512 64.0513 477.615 64.1539L479.258 65.7977C479.407 65.9577 479.453 66.1347 479.396 66.3287L478.488 69.651L482.923 74.0868L487.701 65.3867C487.769 65.2383 487.889 65.147 488.06 65.1127C488.094 65.1012 488.134 65.0956 488.18 65.0956C488.317 65.0956 488.426 65.1299 488.505 65.1983L490.698 66.8422C490.891 67.002 490.96 67.1902 490.903 67.4071L488.163 79.3262L490.92 82.0832C491.788 82.9512 492.404 83.9333 492.769 85.0292Z" fill="#200F32"/>
<path d="M1148 31.9843C1148 49.6487 1116 82 1116 82C1116 82 1084 49.6487 1084 31.9843C1084 14.3199 1098.33 0 1116 0C1133.67 0 1148 14.3199 1148 31.9843Z" fill="url(#paint3_linear)"/>
<circle cx="1116.5" cy="31.5" r="21.5" fill="white"/>
<path d="M1128.77 22.9708C1129.13 21.8749 1129.07 21.0302 1128.56 20.4363C1127.97 19.9339 1127.13 19.8656 1126.03 20.2303C1124.93 20.5957 1123.95 21.2121 1123.08 22.0797L1120.34 24.8199L1108.96 22.0971C1108.77 22.0399 1108.6 22.0855 1108.44 22.2339L1106.25 24.426C1106.13 24.5517 1106.07 24.7058 1106.1 24.8884C1106.13 25.0713 1106.23 25.2081 1106.39 25.2995L1115.09 30.0775L1110.65 34.513L1107.33 33.6056C1107.31 33.5941 1107.26 33.5883 1107.19 33.5883C1107.03 33.5883 1106.9 33.6396 1106.8 33.7425L1105.16 35.4035C1105.04 35.5402 1104.99 35.683 1105 35.8313C1105.02 36.0139 1105.1 36.1453 1105.22 36.2253L1109.54 39.4618L1112.78 43.7771C1112.88 43.9029 1113.02 43.9768 1113.19 44H1113.22C1113.38 44 1113.51 43.9487 1113.61 43.8461L1115.26 42.2023C1115.41 42.0423 1115.45 41.8653 1115.4 41.6713L1114.49 38.349L1118.92 33.9132L1123.7 42.6133C1123.77 42.7617 1123.89 42.853 1124.06 42.8873C1124.09 42.8988 1124.13 42.9044 1124.18 42.9044C1124.32 42.9044 1124.43 42.8701 1124.51 42.8017L1126.7 41.1578C1126.89 40.998 1126.96 40.8098 1126.9 40.5929L1124.16 28.6738L1126.92 25.9168C1127.79 25.0488 1128.4 24.0667 1128.77 22.9708Z" fill="#200F32"/>
<path d="M990 173.034C990 189.621 960 220 960 220C960 220 930 189.621 930 173.034C930 156.447 943.431 143 960 143C976.569 143 990 156.447 990 173.034Z" fill="url(#paint4_linear)"/>
<circle cx="960.5" cy="172.5" r="20.5" fill="white"/>
<path d="M963.188 174.125C961.553 170.23 960.644 165.891 960.644 161.578V159H959.355V161.578C959.355 165.891 958.447 170.23 956.812 174.125H959.355V171.547H960.644V174.125H963.188Z" fill="#200F32"/>
<path d="M963.763 175.414H956.236C955.276 177.442 954.113 179.328 952.775 181H956.992C956.992 179.339 958.339 177.992 960 177.992C961.661 177.992 963.008 179.339 963.008 181H967.225C965.887 179.328 964.724 177.442 963.763 175.414Z" fill="#200F32"/>
<defs>
<filter id="filter0_f" x="210.5" y="76.5" width="1001.5" height="164.05" filterUnits="userSpaceOnUse" color-interpolation-filters="sRGB">
<feFlood flood-opacity="0" result="BackgroundImageFix"/>
<feBlend mode="normal" in="SourceGraphic" in2="BackgroundImageFix" result="shape"/>
<feGaussianBlur stdDeviation="1.5" result="effect1_foregroundBlur"/>
</filter>
<filter id="filter1_d" x="586" y="105" width="83" height="98" filterUnits="userSpaceOnUse" color-interpolation-filters="sRGB">
<feFlood flood-opacity="0" result="BackgroundImageFix"/>
<feColorMatrix in="SourceAlpha" type="matrix" values="0 0 0 0 0 0 0 0 0 0 0 0 0 0 0 0 0 0 127 0"/>
<feOffset dy="4"/>
<feGaussianBlur stdDeviation="7.5"/>
<feColorMatrix type="matrix" values="0 0 0 0 0.860262 0 0 0 0 0.667736 0 0 0 0 0.0901585 0 0 0 0.43 0"/>
<feBlend mode="normal" in2="BackgroundImageFix" result="effect1_dropShadow"/>
<feBlend mode="normal" in="SourceGraphic" in2="effect1_dropShadow" result="shape"/>
</filter>
<linearGradient id="paint0_linear" x1="650.378" y1="116" x2="597.333" y2="121.936" gradientUnits="userSpaceOnUse">
<stop stop-color="#FDC635"/>
<stop offset="1" stop-color="#FFA901"/>
</linearGradient>
<linearGradient id="paint1_linear" x1="815.626" y1="129" x2="751.574" y2="136.178" gradientUnits="userSpaceOnUse">
<stop stop-color="#FDC635"/>
<stop offset="1" stop-color="#FFA901"/>
</linearGradient>
<linearGradient id="paint2_linear" x1="507.626" y1="44" x2="443.574" y2="51.1783" gradientUnits="userSpaceOnUse">
<stop stop-color="#FDC635"/>
<stop offset="1" stop-color="#FFA901"/>
</linearGradient>
<linearGradient id="paint3_linear" x1="1143.63" y1="-9.68754e-06" x2="1079.57" y2="7.17825" gradientUnits="userSpaceOnUse">
<stop stop-color="#FDC635"/>
<stop offset="1" stop-color="#FFA901"/>
</linearGradient>
<linearGradient id="paint4_linear" x1="985.899" y1="143" x2="925.848" y2="149.719" gradientUnits="userSpaceOnUse">
<stop stop-color="#FDC635"/>
<stop offset="1" stop-color="#FFA901"/>
</linearGradient>
<clipPath id="clip0">
<rect width="26" height="26" fill="white" transform="translate(776 146)"/>
</clipPath>
</defs>
</svg>
