<svg width="27" height="16" viewBox="0 0 27 16" fill="none" xmlns="http://www.w3.org/2000/svg">
<path d="M26.861 14.4338C26.8411 14.3731 26.8014 14.3125 26.7617 14.2518C26.0266 13.0586 25.1325 11.9868 24.0795 11.0363L24.0596 11.016L24.0398 10.9958L24.0199 10.9756L24 10.9756C23.6027 10.5914 23.2252 10.2071 22.8675 9.78241C22.7285 9.62062 22.6291 9.41839 22.6093 9.21616C22.5695 9.01392 22.5894 8.79146 22.6689 8.58923C23.0265 7.92186 23.4437 7.27471 23.9404 6.68823C24.3179 6.18264 24.6358 5.75795 24.8543 5.4546C26.4835 3.23002 27.1789 1.79415 26.9604 1.18745L26.8809 1.04589C26.7617 0.924545 26.6226 0.843649 26.4438 0.803202C26.1458 0.722308 25.8477 0.722312 25.5497 0.762759L21.4967 0.782977C21.3973 0.762754 21.298 0.762754 21.2185 0.782977C21.0993 0.803201 21.0397 0.823427 21.0397 0.823427L20.9602 0.863876L20.9006 0.904319C20.841 0.944766 20.7814 0.985216 20.7417 1.04589C20.6821 1.12678 20.6423 1.20767 20.6026 1.28856C20.1854 2.42108 19.6887 3.51315 19.0926 4.56476C18.7549 5.15125 18.437 5.67706 18.139 6.12197C17.9204 6.46577 17.682 6.78934 17.4039 7.0927C17.2449 7.27471 17.0661 7.43649 16.8674 7.59828C16.8277 7.63873 16.7681 7.67918 16.7085 7.71962C16.6489 7.73985 16.5694 7.76007 16.5098 7.76007C16.4303 7.73984 16.3509 7.71962 16.2714 7.6994C16.1323 7.61851 16.033 7.49716 15.9535 7.3556C15.874 7.17359 15.8144 6.99158 15.7946 6.78934C15.7747 6.56689 15.7548 6.36465 15.7548 6.20287C15.7548 6.04108 15.7548 5.7984 15.7548 5.51527C15.7548 5.21192 15.7747 5.00968 15.7747 4.90857C15.7747 4.54454 15.7747 4.14007 15.7946 3.71538C15.8144 3.29069 15.8144 2.92667 15.8343 2.68399C15.8343 2.44131 15.8542 2.15817 15.8542 1.89527C15.8542 1.67281 15.8343 1.45035 15.7946 1.2279C15.7548 1.06611 15.7151 0.924546 15.6555 0.762759C15.5959 0.621195 15.4965 0.499852 15.3575 0.418958C15.2184 0.317841 15.0594 0.25717 14.8806 0.216723C14.2647 0.0953826 13.6289 0.0347135 12.9932 0.0347135C11.8607 -0.0664038 10.7282 0.0549332 9.63548 0.378508C9.4368 0.479626 9.25799 0.641416 9.09904 0.823427C8.9401 1.02566 8.90036 1.147 9.01957 1.16723C9.25798 1.18745 9.47653 1.24812 9.67521 1.34924C9.87389 1.45035 10.0527 1.61214 10.2116 1.79415L10.2911 1.97617C10.3905 2.1784 10.4501 2.40086 10.4898 2.64354C10.5494 2.98734 10.609 3.35136 10.609 3.71538C10.6487 4.32208 10.6487 4.92878 10.609 5.53549C10.5693 6.04107 10.5097 6.42532 10.4699 6.70845C10.4501 6.95113 10.3706 7.17359 10.2712 7.39605C10.2116 7.49717 10.1719 7.61851 10.1123 7.71962C10.0924 7.73985 10.0726 7.78029 10.0328 7.80052C9.91363 7.84096 9.77455 7.86118 9.65534 7.86118C9.47653 7.84096 9.31758 7.78029 9.17851 7.65895C8.95996 7.49716 8.76129 7.31515 8.60234 7.0927C8.34406 6.78934 8.12551 6.44555 7.92683 6.10175C7.66854 5.67706 7.41026 5.17147 7.13211 4.58499L6.91357 4.1603C6.77449 3.87717 6.57581 3.49292 6.33739 2.96711C6.09897 2.4413 5.88042 1.95594 5.70161 1.47058C5.64201 1.28857 5.52281 1.12678 5.36387 1.00544L5.28439 0.964993C5.20492 0.924546 5.14532 0.884098 5.06585 0.843651C4.96651 0.803205 4.84729 0.762758 4.74795 0.742534L0.893571 0.782977C0.754495 0.762754 0.595549 0.78298 0.456473 0.823427C0.317397 0.863874 0.198192 0.944769 0.0988516 1.04589L0.039238 1.12678C-0.000497984 1.20767 -0.000488283 1.28857 -0.000488283 1.36946C-0.000488283 1.51103 0.0392404 1.63237 0.0789764 1.75371C0.63528 3.1289 1.25119 4.44343 1.90683 5.69728C2.56248 6.97136 3.13865 8.00275 3.63535 8.77124C4.13205 9.55995 4.60888 10.288 5.12545 10.9756C5.62215 11.6632 5.9599 12.1081 6.13871 12.2901C6.29765 12.4924 6.43673 12.6339 6.51621 12.735L6.87383 13.0788C7.19172 13.3822 7.5096 13.6653 7.86723 13.908C8.32419 14.2518 8.82089 14.5754 9.31759 14.8787C9.89376 15.2023 10.5097 15.4652 11.1653 15.6472C11.8209 15.8494 12.5163 15.9303 13.2117 15.8899L14.821 15.8899C15.0992 15.8899 15.3773 15.7686 15.5561 15.5663L15.6157 15.5057C15.6555 15.4248 15.6952 15.3236 15.7151 15.2427C15.7548 15.1214 15.7747 14.9798 15.7747 14.8383C15.7548 14.454 15.7945 14.0698 15.874 13.7058C15.9138 13.4429 15.9932 13.2002 16.1124 12.9575C16.1919 12.7957 16.2913 12.6541 16.4105 12.5328C16.4899 12.4519 16.5694 12.3912 16.6489 12.3306C16.6886 12.3103 16.7283 12.2901 16.7681 12.2901C16.9072 12.2699 17.0462 12.2699 17.1853 12.3103C17.3244 12.3508 17.4436 12.4317 17.5628 12.5126C17.8807 12.7553 18.1787 13.0384 18.4171 13.3417C18.6754 13.6855 19.0132 14.0496 19.3708 14.4743C19.6688 14.8181 20.0066 15.1214 20.3443 15.4045L20.6225 15.5865C20.8609 15.7079 21.0993 15.8292 21.3576 15.9101C21.6159 15.991 21.8742 16.0315 22.1523 15.9708L25.7484 15.9303C26.0266 15.9506 26.3246 15.8899 26.5829 15.7483C26.7418 15.6674 26.861 15.5259 26.9405 15.3439C26.9802 15.1821 26.9802 15.0203 26.9405 14.8585C26.9405 14.6967 26.9007 14.5754 26.861 14.4338Z" fill="#4C84C4"/>
</svg>
